# Blender v2.83 (sub 15) OBJ File: ''
# www.blender.org
mtllib sign-full.mtl
o sign2
v 0.009435 0.037576 0.124347
v 0.000000 0.037576 0.120439
v 0.000000 1.747671 0.120439
v 0.009435 1.747671 0.124348
v -0.009435 0.037576 0.124347
v -0.009435 1.747671 0.124348
v -0.013344 0.037576 0.133783
v -0.013344 1.747671 0.133783
v -0.009435 0.037576 0.143219
v -0.009435 1.747671 0.143219
v 0.000000 0.037576 0.147127
v 0.000000 1.747671 0.147127
v 0.009435 0.037576 0.143219
v 0.009435 1.747671 0.143219
v 0.013344 0.037576 0.133783
v 0.013344 1.747671 0.133783
v 0.000000 0.037576 0.133783
v 0.000000 1.747671 0.133783
v 0.009435 0.037576 -0.153507
v 0.000000 0.037576 -0.157415
v 0.000000 1.747671 -0.157415
v 0.009435 1.747671 -0.153507
v -0.009435 0.037576 -0.153507
v -0.009435 1.747671 -0.153507
v -0.013344 0.037576 -0.144072
v -0.013344 1.747671 -0.144071
v -0.009435 0.037576 -0.134636
v -0.009435 1.747671 -0.134636
v 0.000000 0.037576 -0.130728
v 0.000000 1.747671 -0.130728
v 0.009435 0.037576 -0.134636
v 0.009435 1.747671 -0.134636
v 0.013344 0.037576 -0.144072
v 0.013344 1.747671 -0.144071
v 0.000000 0.037576 -0.144072
v 0.000000 1.747671 -0.144071
v 0.087011 -0.032314 -0.429141
v -0.088112 -0.032314 -0.428216
v -0.088112 0.032314 -0.428216
v 0.087011 0.032314 -0.429141
v -0.211620 -0.032314 -0.176449
v -0.211620 0.032314 -0.176449
v -0.211164 -0.032314 0.178680
v -0.211164 0.032314 0.178680
v -0.087011 -0.032314 0.429141
v -0.087011 0.032314 0.429141
v 0.088112 -0.032314 0.428216
v 0.088112 0.032314 0.428216
v 0.211620 -0.032314 0.176449
v 0.211620 0.032314 0.176449
v 0.211164 -0.032314 -0.178680
v 0.211164 0.032314 -0.178680
v 0.074919 0.035748 -0.369503
v -0.075867 0.035748 -0.368707
v -0.075867 0.078289 -0.368707
v 0.074919 0.078289 -0.369503
v -0.182211 0.035748 -0.151928
v -0.182211 0.078289 -0.151928
v -0.181818 0.035747 0.153849
v -0.181818 0.078289 0.153849
v -0.074919 0.035747 0.369503
v -0.074919 0.078289 0.369503
v 0.075867 0.035747 0.368707
v 0.075867 0.078289 0.368707
v 0.182211 0.035747 0.151928
v 0.182211 0.078289 0.151928
v 0.181818 0.035748 -0.153849
v 0.181818 0.078289 -0.153849
v 0.011043 0.651601 -0.392775
v 0.011043 0.651601 0.392775
v 0.011043 1.908331 0.392775
v 0.011043 1.908331 -0.392775
v 0.031987 0.651601 -0.392775
v 0.031987 1.908331 -0.392775
v 0.031987 1.908331 0.392775
v 0.031987 0.651601 0.392775
v 0.032816 0.601797 -0.423907
v 0.010214 0.601796 -0.423907
v 0.010213 1.958136 -0.423906
v 0.032816 1.958136 -0.423906
v 0.010213 1.958135 0.423907
v 0.032816 1.958136 0.423907
v 0.010214 0.601796 0.423907
v 0.032816 0.601797 0.423907
v 0.042113 0.601983 -0.423693
v 0.051167 0.616611 -0.411276
v 0.051167 0.616610 0.411276
v 0.042113 0.601983 0.423693
v 0.042113 1.957949 -0.423693
v 0.051167 1.943323 -0.411275
v 0.042113 1.957949 0.423694
v 0.051168 1.943355 0.411304
v 0.041558 0.651793 -0.392555
v 0.050838 0.638857 -0.400701
v 0.050803 1.921479 -0.400959
v 0.041283 1.908145 -0.392561
v 0.041283 0.651788 0.392562
v 0.050803 0.638453 0.400959
v 0.050838 1.921075 0.400705
v 0.041559 1.908139 0.392556
v -0.006014 0.651601 0.392775
v -0.006014 0.651601 -0.392775
v -0.006014 1.908331 -0.392775
v -0.006014 1.908331 0.392775
v -0.026957 0.651601 0.392775
v -0.026958 1.908331 0.392775
v -0.026958 1.908331 -0.392775
v -0.026957 0.651601 -0.392775
v -0.027788 0.601797 0.423907
v -0.005185 0.601796 0.423907
v -0.005184 1.958135 0.423907
v -0.027787 1.958136 0.423907
v -0.005184 1.958136 -0.423906
v -0.027787 1.958136 -0.423906
v -0.005185 0.601796 -0.423907
v -0.027788 0.601797 -0.423907
v -0.037084 0.601983 0.423693
v -0.046138 0.616610 0.411276
v -0.046138 0.616611 -0.411276
v -0.037084 0.601983 -0.423693
v -0.037084 1.957949 0.423694
v -0.046138 1.943322 0.411276
v -0.037084 1.957949 -0.423693
v -0.046138 1.943355 -0.411303
v -0.036529 0.651793 0.392556
v -0.045809 0.638857 0.400702
v -0.045774 1.921479 0.400959
v -0.036254 1.908145 0.392562
v -0.036254 0.651788 -0.392561
v -0.045774 0.638453 -0.400959
v -0.045809 1.921075 -0.400704
v -0.036530 1.908139 -0.392555
vt 0.375000 0.312500
vt 0.406250 0.312500
vt 0.406250 0.688440
vt 0.375000 0.688440
vt 0.437500 0.312500
vt 0.437500 0.688440
vt 0.468750 0.312500
vt 0.468750 0.688440
vt 0.500000 0.312500
vt 0.500000 0.688440
vt 0.531250 0.312500
vt 0.531250 0.688440
vt 0.562500 0.312500
vt 0.562500 0.688440
vt 0.593750 0.312500
vt 0.593750 0.688440
vt 0.625000 0.312500
vt 0.625000 0.688440
vt 0.375000 0.312500
vt 0.406250 0.312500
vt 0.406250 0.688440
vt 0.375000 0.688440
vt 0.437500 0.312500
vt 0.437500 0.688440
vt 0.468750 0.312500
vt 0.468750 0.688440
vt 0.500000 0.312500
vt 0.500000 0.688440
vt 0.531250 0.312500
vt 0.531250 0.688440
vt 0.562500 0.312500
vt 0.562500 0.688440
vt 0.593750 0.312500
vt 0.593750 0.688440
vt 0.625000 0.312500
vt 0.625000 0.688440
vt 0.375000 0.312500
vt 0.406250 0.312500
vt 0.406250 0.688440
vt 0.375000 0.688440
vt 0.437500 0.312500
vt 0.437500 0.688440
vt 0.468750 0.312500
vt 0.468750 0.688440
vt 0.500000 0.312500
vt 0.500000 0.688440
vt 0.531250 0.312500
vt 0.531250 0.688440
vt 0.562500 0.312500
vt 0.562500 0.688440
vt 0.593750 0.312500
vt 0.593750 0.688440
vt 0.625000 0.312500
vt 0.625000 0.688440
vt 0.610485 0.045765
vt 0.656250 0.156250
vt 0.610485 0.266735
vt 0.500000 0.312500
vt 0.389515 0.266735
vt 0.343750 0.156250
vt 0.389515 0.045765
vt 0.500000 0.000000
vt 0.610485 0.954235
vt 0.500000 1.000000
vt 0.500000 1.000000
vt 0.610485 0.954235
vt 0.389515 0.954235
vt 0.389515 0.954235
vt 0.343750 0.843750
vt 0.343750 0.843750
vt 0.389515 0.733265
vt 0.389515 0.733265
vt 0.500000 0.687500
vt 0.500000 0.687500
vt 0.610485 0.733265
vt 0.610485 0.733265
vt 0.656250 0.843750
vt 0.656250 0.843750
vt 0.610485 0.954235
vt 0.500000 1.000000
vt 0.389515 0.954235
vt 0.343750 0.843750
vt 0.389515 0.733265
vt 0.500000 0.687500
vt 0.610485 0.733265
vt 0.656250 0.843750
vt 0.000000 0.000000
vt 0.000000 1.000000
vt 1.000000 1.000000
vt 1.000000 0.000000
vt 1.000000 0.000000
vt 0.000000 0.000000
vt 1.000000 1.000000
vt 0.000000 1.000000
vt 0.000000 0.000000
vt 0.000000 0.004050
vt 0.000000 0.996248
vt 0.000000 1.000000
vt 1.000000 0.000000
vt 1.000000 0.003752
vt 1.000000 1.000000
vt 1.000000 0.995959
vt 0.000000 0.000000
vt 0.001877 0.001787
vt 0.997962 0.001706
vt 1.000000 0.000000
vt 0.000000 1.000000
vt 0.002038 0.998294
vt 0.998125 0.998219
vt 1.000000 1.000000
vt 1.000000 0.000000
vt 0.000000 0.000000
vt 1.000000 1.000000
vt 0.000000 1.000000
vt 0.000000 0.000000
vt 0.000000 1.000000
vt 1.000000 1.000000
vt 1.000000 0.000000
vt 1.000000 0.000000
vt 0.000000 0.000000
vt 1.000000 1.000000
vt 0.000000 1.000000
vt 0.000000 0.000000
vt 0.000000 0.004050
vt 0.000000 0.996248
vt 0.000000 1.000000
vt 1.000000 0.000000
vt 1.000000 0.003752
vt 1.000000 1.000000
vt 1.000000 0.995959
vt 0.000000 0.000000
vt 0.001877 0.001787
vt 0.997962 0.001706
vt 1.000000 0.000000
vt 0.000000 1.000000
vt 0.002038 0.998294
vt 0.998125 0.998219
vt 1.000000 1.000000
vt 1.000000 0.000000
vt 0.000000 0.000000
vt 1.000000 1.000000
vt 0.000000 1.000000
vt 0.500000 0.000000
vt 0.610485 0.045765
vt 0.500000 0.150000
vt 0.389515 0.045765
vt 0.343750 0.156250
vt 0.389515 0.266735
vt 0.500000 0.312500
vt 0.610485 0.266735
vt 0.656250 0.156250
vt 0.610485 0.954235
vt 0.500000 1.000000
vt 0.500000 0.837500
vt 0.389515 0.954235
vt 0.343750 0.843750
vt 0.389515 0.733265
vt 0.500000 0.687500
vt 0.610485 0.733265
vt 0.656250 0.843750
vt 0.500000 0.000000
vt 0.610485 0.045765
vt 0.500000 0.150000
vt 0.389515 0.045765
vt 0.343750 0.156250
vt 0.389515 0.266735
vt 0.500000 0.312500
vt 0.610485 0.266735
vt 0.656250 0.156250
vt 0.610485 0.954235
vt 0.500000 1.000000
vt 0.500000 0.837500
vt 0.389515 0.954235
vt 0.343750 0.843750
vt 0.389515 0.733265
vt 0.500000 0.687500
vt 0.610485 0.733265
vt 0.656250 0.843750
vt 0.000000 0.000000
vt 1.000000 0.000000
vt 1.000000 1.000000
vt 0.000000 1.000000
vt 0.000000 0.000000
vt 1.000000 0.000000
vt 1.000000 1.000000
vt 0.000000 1.000000
vt 0.000000 1.000000
vt 0.000000 0.000000
vt 1.000000 0.000000
vt 1.000000 1.000000
vt 0.000000 1.000000
vt 0.000000 0.000000
vt 1.000000 0.000000
vt 1.000000 1.000000
vn 0.3827 0.0000 -0.9239
vn -0.3827 0.0000 -0.9239
vn -0.9239 0.0000 -0.3827
vn -0.9239 -0.0000 0.3827
vn -0.3827 -0.0000 0.9239
vn 0.3827 -0.0000 0.9239
vn 0.9239 -0.0000 0.3827
vn 0.9239 0.0000 -0.3827
vn -0.0053 0.0000 -1.0000
vn -0.8978 0.0000 -0.4404
vn -1.0000 0.0000 0.0013
vn -0.8960 0.0000 0.4441
vn 0.0053 0.0000 1.0000
vn 0.8978 0.0000 0.4404
vn 1.0000 0.0000 -0.0013
vn 0.8960 0.0000 -0.4441
vn -0.0000 -1.0000 -0.0000
vn -0.0003 0.9983 -0.0575
vn -0.0825 0.9958 -0.0405
vn -0.1161 0.9932 0.0001
vn -0.0821 0.9958 0.0407
vn 0.0003 0.9983 0.0575
vn 0.0825 0.9958 0.0405
vn 0.1161 0.9932 -0.0001
vn 0.0821 0.9958 -0.0407
vn 0.0000 1.0000 0.0000
vn -1.0000 0.0000 0.0000
vn -0.9996 -0.0000 0.0266
vn -0.9999 -0.0167 -0.0000
vn -0.9996 -0.0000 -0.0266
vn -0.9999 0.0167 0.0000
vn 0.8503 -0.5263 -0.0000
vn 0.8080 -0.0000 -0.5892
vn 0.8500 0.5268 -0.0000
vn 0.8077 -0.0000 0.5896
vn 0.6606 0.0002 0.7507
vn 0.8132 0.5819 0.0003
vn 0.8132 -0.5819 -0.0003
vn 0.6607 -0.0002 -0.7506
vn -0.0229 -0.0000 0.9997
vn -0.0201 -0.9998 -0.0000
vn -0.0229 0.0000 -0.9997
vn -0.0201 0.9998 0.0000
vn 1.0000 0.0000 0.0000
vn 0.9996 -0.0000 -0.0267
vn 0.9999 -0.0167 -0.0000
vn 0.9996 -0.0000 0.0267
vn 0.9999 0.0167 0.0000
vn -0.8503 -0.5263 -0.0000
vn -0.8080 -0.0000 0.5892
vn -0.8500 0.5268 0.0000
vn -0.8077 -0.0000 -0.5896
vn -0.6606 0.0002 -0.7507
vn -0.8132 0.5819 -0.0003
vn -0.8132 -0.5819 0.0003
vn -0.6607 -0.0002 0.7506
vn 0.0229 0.0000 -0.9997
vn 0.0201 -0.9998 -0.0000
vn 0.0229 -0.0000 0.9997
vn 0.0201 0.9998 0.0000
vn 0.0066 0.0000 -1.0000
vn -0.0000 0.0000 -1.0000
vn 0.0058 1.0000 0.0000
vn 0.0066 -0.0000 1.0000
vn 0.0000 -0.0000 1.0000
vn 0.0058 -1.0000 -0.0000
vn 0.0230 0.0000 -0.9997
vn 0.0230 -0.0000 0.9997
vn 0.9998 -0.0078 0.0168
vn 0.9998 0.0078 0.0168
vn 0.9999 0.0121 0.0077
vn 0.9999 -0.0121 0.0077
vn 0.9998 -0.0078 -0.0168
vn 0.9999 -0.0121 -0.0078
vn 0.9998 0.0078 -0.0168
vn 0.9999 0.0121 -0.0076
vn -0.0066 -0.0000 1.0000
vn -0.0058 1.0000 0.0000
vn -0.0066 0.0000 -1.0000
vn -0.0058 -1.0000 -0.0000
vn -0.0230 -0.0000 0.9997
vn -0.0230 0.0000 -0.9997
vn -0.9998 -0.0078 -0.0168
vn -0.9998 0.0078 -0.0168
vn -0.9999 0.0121 -0.0077
vn -0.9999 -0.0121 -0.0077
vn -0.9998 -0.0078 0.0167
vn -0.9999 -0.0121 0.0077
vn -0.9998 0.0077 0.0168
vn -0.9999 0.0121 0.0076
usemtl initialShadingGroup.001
s off
f 1/1/1 2/2/1 3/3/1 4/4/1
f 2/2/2 5/5/2 6/6/2 3/3/2
f 5/5/3 7/7/3 8/8/3 6/6/3
f 7/7/4 9/9/4 10/10/4 8/8/4
f 9/9/5 11/11/5 12/12/5 10/10/5
f 11/11/6 13/13/6 14/14/6 12/12/6
f 13/13/7 15/15/7 16/16/7 14/14/7
f 15/15/8 1/17/8 4/18/8 16/16/8
f 19/19/1 20/20/1 21/21/1 22/22/1
f 20/20/2 23/23/2 24/24/2 21/21/2
f 23/23/3 25/25/3 26/26/3 24/24/3
f 25/25/4 27/27/4 28/28/4 26/26/4
f 27/27/5 29/29/5 30/30/5 28/28/5
f 29/29/6 31/31/6 32/32/6 30/30/6
f 31/31/7 33/33/7 34/34/7 32/32/7
f 33/33/8 19/35/8 22/36/8 34/34/8
f 37/37/9 38/38/9 39/39/9 40/40/9
f 38/38/10 41/41/10 42/42/10 39/39/10
f 41/41/11 43/43/11 44/44/11 42/42/11
f 43/43/12 45/45/12 46/46/12 44/44/12
f 45/45/13 47/47/13 48/48/13 46/46/13
f 47/47/14 49/49/14 50/50/14 48/48/14
f 49/49/15 51/51/15 52/52/15 50/50/15
f 51/51/16 37/53/16 40/54/16 52/52/16
f 37/55/17 51/56/17 49/57/17 47/58/17 45/59/17 43/60/17 41/61/17 38/62/17
f 53/63/9 54/64/9 55/65/9 56/66/9
f 54/64/10 57/67/10 58/68/10 55/65/10
f 57/67/11 59/69/11 60/70/11 58/68/11
f 59/69/12 61/71/12 62/72/12 60/70/12
f 61/71/13 63/73/13 64/74/13 62/72/13
f 63/73/14 65/75/14 66/76/14 64/74/14
f 65/75/15 67/77/15 68/78/15 66/76/15
f 67/77/16 53/63/16 56/66/16 68/78/16
f 40/79/18 39/80/18 54/64/18 53/63/18
f 39/80/19 42/81/19 57/67/19 54/64/19
f 42/81/20 44/82/20 59/69/20 57/67/20
f 44/82/21 46/83/21 61/71/21 59/69/21
f 46/83/22 48/84/22 63/73/22 61/71/22
f 48/84/23 50/85/23 65/75/23 63/73/23
f 50/85/24 52/86/24 67/77/24 65/75/24
f 52/86/25 40/79/25 53/63/25 67/77/25
f 56/66/26 55/65/26 58/68/26 60/70/26 62/72/26 64/74/26 66/76/26 68/78/26
f 69/87/27 70/88/27 71/89/27 72/90/27
f 69/87/28 72/90/28 79/91/28 78/92/28
f 72/90/29 71/89/29 81/93/29 79/91/29
f 71/89/30 70/88/30 83/94/30 81/93/30
f 70/88/31 69/87/31 78/92/31 83/94/31
f 85/95/32 86/96/32 87/97/32 88/98/32
f 86/96/33 85/95/33 89/99/33 90/100/33
f 90/100/34 89/99/34 91/101/34 92/102/34
f 92/102/35 91/101/35 88/98/35 87/97/35
f 93/103/36 94/104/36 95/105/36 96/106/36
f 94/104/37 93/103/37 97/107/37 98/108/37
f 96/106/38 95/105/38 99/109/38 100/110/38
f 100/110/39 99/109/39 98/108/39 97/107/39
f 74/111/40 73/112/40 93/103/40 96/106/40
f 75/113/41 74/111/41 96/106/41 100/110/41
f 76/114/42 75/113/42 100/110/42 97/107/42
f 73/112/43 76/114/43 97/107/43 93/103/43
f 101/115/44 102/116/44 103/117/44 104/118/44
f 101/115/45 104/118/45 111/119/45 110/120/45
f 104/118/46 103/117/46 113/121/46 111/119/46
f 103/117/47 102/116/47 115/122/47 113/121/47
f 102/116/48 101/115/48 110/120/48 115/122/48
f 117/123/49 118/124/49 119/125/49 120/126/49
f 118/124/50 117/123/50 121/127/50 122/128/50
f 122/128/51 121/127/51 123/129/51 124/130/51
f 124/130/52 123/129/52 120/126/52 119/125/52
f 125/131/53 126/132/53 127/133/53 128/134/53
f 126/132/54 125/131/54 129/135/54 130/136/54
f 128/134/55 127/133/55 131/137/55 132/138/55
f 132/138/56 131/137/56 130/136/56 129/135/56
f 106/139/57 105/140/57 125/131/57 128/134/57
f 107/141/58 106/139/58 128/134/58 132/138/58
f 108/142/59 107/141/59 132/138/59 129/135/59
f 105/140/60 108/142/60 129/135/60 125/131/60
s 1
f 2/143/17 1/144/17 17/145/17
f 5/146/17 2/143/17 17/145/17
f 7/147/17 5/146/17 17/145/17
f 9/148/17 7/147/17 17/145/17
f 11/149/17 9/148/17 17/145/17
f 13/150/17 11/149/17 17/145/17
f 15/151/17 13/150/17 17/145/17
f 1/144/17 15/151/17 17/145/17
f 4/152/26 3/153/26 18/154/26
f 3/153/26 6/155/26 18/154/26
f 6/155/26 8/156/26 18/154/26
f 8/156/26 10/157/26 18/154/26
f 10/157/26 12/158/26 18/154/26
f 12/158/26 14/159/26 18/154/26
f 14/159/26 16/160/26 18/154/26
f 16/160/26 4/152/26 18/154/26
f 20/161/17 19/162/17 35/163/17
f 23/164/17 20/161/17 35/163/17
f 25/165/17 23/164/17 35/163/17
f 27/166/17 25/165/17 35/163/17
f 29/167/17 27/166/17 35/163/17
f 31/168/17 29/167/17 35/163/17
f 33/169/17 31/168/17 35/163/17
f 19/162/17 33/169/17 35/163/17
f 22/170/26 21/171/26 36/172/26
f 21/171/26 24/173/26 36/172/26
f 24/173/26 26/174/26 36/172/26
f 26/174/26 28/175/26 36/172/26
f 28/175/26 30/176/26 36/172/26
f 30/176/26 32/177/26 36/172/26
f 32/177/26 34/178/26 36/172/26
f 34/178/26 22/170/26 36/172/26
f 77/179/61 78/92/62 79/91/62 80/180/61
f 80/180/63 79/91/26 81/93/26 82/181/63
f 82/181/64 81/93/65 83/94/65 84/182/64
f 84/182/66 83/94/17 78/92/17 77/179/66
f 77/179/61 80/180/61 89/99/67 85/95/67
f 80/180/63 82/181/63 91/101/60 89/99/60
f 82/181/64 84/182/64 88/98/68 91/101/68
f 84/182/66 77/179/66 85/95/58 88/98/58
f 95/105/69 94/104/70 86/96/71 90/100/72
f 99/109/73 95/105/69 90/100/72 92/102/74
f 98/108/75 99/109/73 92/102/74 87/97/76
f 94/104/70 98/108/75 87/97/76 86/96/71
f 109/183/77 110/120/65 111/119/65 112/184/77
f 112/184/78 111/119/26 113/121/26 114/185/78
f 114/185/79 113/121/62 115/122/62 116/186/79
f 116/186/80 115/122/17 110/120/17 109/183/80
f 109/183/77 112/184/77 121/127/81 117/123/81
f 112/184/78 114/185/78 123/129/43 121/127/43
f 114/185/79 116/186/79 120/126/82 123/129/82
f 116/186/80 109/183/80 117/123/41 120/126/41
f 127/133/83 126/132/84 118/124/85 122/128/86
f 131/137/87 127/133/83 122/128/86 124/130/88
f 130/136/89 131/137/87 124/130/88 119/125/90
f 126/132/84 130/136/89 119/125/90 118/124/85
usemtl signs
s off
f 73/187/44 74/188/44 75/189/44 76/190/44
f 105/191/27 106/192/27 107/193/27 108/194/27
