# This file uses centimeters as units for non-parametric coordinates.

mtllib table.mtl
g default
v -2.758756 1.615182 -1.265003
v 2.758756 1.615182 -1.265003
v -2.758756 1.615182 -4.033357
v 2.758756 1.615182 -4.033357
v -2.596791 1.615182 -3.886266
v 2.596791 1.615182 -3.886266
v 2.596791 1.615182 -1.412093
v -2.596791 1.615182 -1.412093
v 2.526240 1.615182 -4.033357
v 2.377926 1.615182 -3.886266
v 2.377926 1.615182 -1.412093
v 2.526240 1.615182 -1.265003
v -2.526240 1.615182 -4.033357
v -2.377926 1.615182 -3.886266
v -2.377926 1.615182 -1.412093
v -2.526240 1.615182 -1.265003
v -2.311323 1.336811 -3.663719
v -2.311323 1.336811 -1.634640
v -2.311323 0.114659 -1.634640
v -2.311323 0.114659 -3.663719
v -2.524057 1.336811 -3.663719
v -2.524057 1.336811 -1.634640
v -2.524057 0.114659 -3.663719
v -2.524057 0.114659 -1.634640
v 2.311323 1.336811 -3.663719
v 2.311323 1.336811 -1.634640
v 2.311323 0.114659 -3.663719
v 2.311323 0.114659 -1.634640
v 2.524057 1.336811 -3.663719
v 2.524057 1.336811 -1.634640
v 2.524057 0.114659 -1.634640
v 2.524057 0.114659 -3.663719
v -2.758756 1.729761 -1.265002
v -2.712051 1.776466 -1.311707
v -2.526240 1.729761 -1.265002
v -2.526240 1.776466 -1.311707
v -2.712051 1.776466 -3.986652
v -2.758756 1.729761 -4.033357
v -2.526240 1.729761 -4.033357
v -2.526240 1.776466 -3.986652
v 2.758756 1.729761 -1.265002
v 2.712051 1.776466 -1.311707
v 2.712051 1.776466 -3.986652
v 2.758756 1.729761 -4.033357
v 2.526240 1.776466 -3.986652
v 2.526240 1.729761 -4.033357
v 2.526240 1.729761 -1.265002
v 2.526240 1.776466 -1.311707
v -2.529569 1.423425 -3.807520
v -2.531394 1.452090 -3.811758
v -2.547281 1.491710 -3.862680
v -2.483768 1.452090 -3.855111
v -2.478060 -0.000620 -3.855111
v -2.529493 0.035878 -3.805540
v -2.316430 1.424456 -3.809233
v -2.363947 1.452090 -3.855111
v -2.329245 1.482604 -3.860940
v -2.285015 1.452090 -3.855111
v -2.318041 1.452090 -3.822086
v -2.367445 -0.000620 -3.855111
v -2.316091 0.032830 -3.808894
v -2.316430 1.424456 -1.489126
v -2.318041 1.452090 -1.476273
v -2.285015 1.452090 -1.443248
v -2.329245 1.482604 -1.437419
v -2.363947 1.452090 -1.443248
v -2.369119 -0.000620 -1.443248
v -2.316362 0.033979 -1.491053
v -2.529569 1.423425 -1.490839
v -2.483768 1.452090 -1.443248
v -2.547281 1.491710 -1.435679
v -2.531394 1.452090 -1.486601
v -2.479525 -0.000620 -1.443248
v -2.529136 0.034859 -1.491434
v 2.316430 1.424456 -3.809233
v 2.318041 1.452090 -3.822086
v 2.285015 1.452090 -3.855111
v 2.329245 1.482604 -3.860940
v 2.363947 1.452090 -3.855111
v 2.369119 -0.000620 -3.855111
v 2.316362 0.033979 -3.807305
v 2.316430 1.424456 -1.489126
v 2.363947 1.452090 -1.443248
v 2.329245 1.482604 -1.437419
v 2.285015 1.452090 -1.443248
v 2.318041 1.452090 -1.476273
v 2.367445 -0.000620 -1.443248
v 2.316091 0.032830 -1.489465
v 2.529569 1.423425 -3.807520
v 2.483768 1.452090 -3.855111
v 2.547281 1.491710 -3.862680
v 2.531394 1.452090 -3.811758
v 2.479525 -0.000620 -3.855111
v 2.529136 0.034859 -3.806925
v 2.529569 1.423425 -1.490839
v 2.531394 1.452090 -1.486601
v 2.547281 1.491710 -1.435679
v 2.483768 1.452090 -1.443248
v 2.478060 -0.000620 -1.443248
v 2.529493 0.035878 -1.492819
vt 0.625000 0.750000
vt 0.375000 1.000000
vt 0.625000 1.000000
vt 0.625000 0.750000
vt 0.589286 0.750000
vt 0.589286 1.000000
vt 0.410714 1.000000
vt 0.410714 0.750000
vt 0.410714 0.750000
vt 0.375000 1.000000
vt 0.375000 1.000000
vt 0.375000 0.750000
vt 0.375000 0.995506
vt 0.589286 1.000000
vt 0.410714 1.000000
vt 0.589286 0.996577
vt 0.410714 0.753423
vt 0.625000 0.750000
vt 0.625000 0.754494
vt 0.625000 1.000000
vt 0.589286 1.000000
vt 0.375000 0.572394
vt 0.382174 0.495782
vt 0.629218 0.250000
vt 0.875000 0.177605
vt 0.870782 0.250000
vt 0.383012 0.750000
vt 0.410714 0.750000
vt 0.403012 1.000000
vt 0.375000 1.000000
vt 0.596988 0.750000
vt 0.589286 1.000000
vt 0.625000 0.750000
vt 0.616988 1.000000
vt 0.410714 0.000000
vt 0.375000 0.177604
vt 0.382174 0.254221
vt 0.410714 0.254218
vt 0.410714 0.572395
vt 0.375000 0.750000
vt 0.383928 0.750000
vt 0.402164 1.000000
vt 0.875000 0.000000
vt 0.625000 0.177605
vt 0.125000 0.000000
vt 0.375000 0.000000
vt 0.125000 0.177605
vt 0.625000 0.572395
vt 0.589286 0.750000
vt 0.597836 0.750000
vt 0.616072 1.000000
vt 0.589286 0.177605
vt 0.625000 0.000000
vt 0.589286 0.495782
vt 0.617826 0.254218
vt 0.617826 0.495782
vt 0.410714 0.750000
vt 0.589286 0.572395
vt 0.410714 0.177605
vt 0.589286 0.000000
vt 0.410714 0.495782
vt 0.589286 0.254218
vt 0.403012 0.750000
vt 0.402445 0.750000
vt 0.382950 1.000000
vt 0.383683 1.000000
vt 0.617050 0.750000
vt 0.616317 0.750000
vt 0.596988 1.000000
vt 0.597556 1.000000
vt 0.410714 1.000000
vt 0.410714 1.000000
vt 0.410714 1.000000
vt 0.410714 0.750000
vt 0.410714 1.000000
vt 0.410714 0.750000
vt 0.375000 0.750000
vt 0.375000 0.750000
vt 0.375000 0.750000
vt 0.375000 1.000000
vt 0.375000 0.750000
vt 0.375000 1.000000
vt 0.589286 0.750000
vt 0.589286 0.750000
vt 0.589286 0.750000
vt 0.589286 1.000000
vt 0.589286 0.750000
vt 0.589286 1.000000
vt 0.625000 1.000000
vt 0.625000 1.000000
vt 0.625000 1.000000
vt 0.625000 0.750000
vt 0.625000 1.000000
vt 0.625000 0.750000
vt 0.375000 0.754494
vt 0.375000 0.750000
vt 0.410714 0.750000
vt 0.411986 0.750000
vt 0.410714 0.996577
vt 0.411986 1.000000
vt 0.410714 1.000000
vt 0.375000 1.000000
vt 0.589286 0.753423
vt 0.588014 0.750000
vt 0.589286 0.750000
vt 0.589286 1.000000
vt 0.588014 1.000000
vt 0.625000 0.750000
vt 0.625000 0.995506
vt 0.625000 1.000000
vn 0.000000 -1.000000 0.000000
vn 0.000000 -1.000000 -0.000000
vn 0.000000 -1.000000 -0.000000
vn 0.000000 -1.000000 0.000000
vn 0.000000 -1.000000 0.000000
vn 0.000000 -1.000000 0.000000
vn 0.000000 -1.000000 0.000000
vn 0.000000 -1.000000 0.000000
vn 0.000000 -1.000000 -0.000000
vn 0.000000 -1.000000 0.000000
vn 0.000000 -1.000000 0.000000
vn 0.000000 -1.000000 -0.000000
vn 0.000000 -1.000000 0.000000
vn 0.000000 -1.000000 0.000000
vn 0.000000 -1.000000 0.000000
vn 0.000000 -1.000000 0.000000
vn 0.000000 -0.187631 -0.982240
vn 0.000000 -0.187631 -0.982240
vn 0.000026 -0.187710 -0.982225
vn 0.004121 -0.048665 -0.998807
vn 0.000000 -0.033381 -0.999443
vn 0.000000 -0.187631 -0.982239
vn 0.928163 -0.372175 0.000000
vn 0.928163 -0.372175 0.000000
vn 0.928163 -0.372175 0.000000
vn 0.928163 -0.372175 0.000000
vn 0.928163 -0.372175 0.000000
vn 0.928163 -0.372175 0.000000
vn 0.000000 -0.187632 0.982239
vn 0.000000 -0.187632 0.982239
vn 0.000000 -0.187632 0.982239
vn 0.000000 -0.033405 0.999442
vn 0.004124 -0.048703 0.998805
vn 0.000026 -0.187710 0.982224
vn -0.928163 -0.372175 -0.000000
vn -0.928163 -0.372175 -0.000000
vn -0.928163 -0.372175 -0.000000
vn -0.928163 -0.372175 -0.000000
vn -0.928163 -0.372175 -0.000000
vn -0.928163 -0.372175 -0.000000
vn 0.000000 -1.000000 -0.000000
vn 0.000000 -1.000000 -0.000000
vn 0.000000 -1.000000 0.000000
vn 0.000000 -1.000000 0.000000
vn -0.000000 -0.187632 0.982239
vn -0.000000 -0.187632 0.982239
vn -0.000026 -0.187710 0.982224
vn -0.004121 -0.048665 0.998807
vn -0.000000 -0.033381 0.999443
vn -0.000000 -0.187632 0.982239
vn 0.000000 -1.000000 0.000000
vn 0.000000 -1.000000 -0.000000
vn 0.000000 -1.000000 -0.000000
vn 0.000000 -1.000000 0.000000
vn 0.000551 -0.189320 0.981915
vn -0.000551 -0.189320 0.981915
vn 0.000000 0.000000 -1.000000
vn 0.000000 0.000000 -1.000000
vn 0.000000 0.000000 -1.000000
vn 0.000000 0.000000 -1.000000
vn 0.000000 1.000000 0.000000
vn 0.000000 1.000000 0.000000
vn 0.000000 1.000000 0.000000
vn 0.000000 1.000000 0.000000
vn 0.000000 0.000000 1.000000
vn 0.000000 0.000000 1.000000
vn 0.000000 0.000000 1.000000
vn 0.000000 0.000000 1.000000
vn 0.000000 -1.000000 0.000000
vn 0.000000 -1.000000 0.000000
vn 0.000000 -1.000000 0.000000
vn 0.000000 -1.000000 0.000000
vn 0.000000 -1.000000 0.000000
vn 0.000000 -1.000000 0.000000
vn 0.000000 -1.000000 0.000000
vn 0.000000 -1.000000 0.000000
vn 0.000000 0.000000 1.000000
vn 0.000000 0.000000 1.000000
vn 0.000000 0.000000 1.000000
vn 0.000000 0.000000 1.000000
vn 0.000000 1.000000 0.000000
vn 0.000000 1.000000 0.000000
vn 0.000000 1.000000 0.000000
vn 0.000000 1.000000 0.000000
vn 0.000000 0.000000 -1.000000
vn 0.000000 0.000000 -1.000000
vn 0.000000 0.000000 -1.000000
vn 0.000000 0.000000 -1.000000
vn 0.998444 0.055740 -0.001429
vn 0.998306 0.058178 0.000000
vn 0.998306 0.058178 0.000000
vn 0.998444 0.055750 0.001467
vn 0.999476 0.025835 0.019521
vn 0.999487 0.025820 -0.018944
vn -0.998145 -0.060861 -0.001550
vn -0.997981 -0.063517 0.000000
vn -0.997981 -0.063517 0.000000
vn -0.998144 -0.060870 0.001601
vn -0.999372 -0.028400 0.021205
vn -0.999387 -0.028405 -0.020459
vn -0.000026 -0.187710 -0.982225
vn -0.000551 -0.189320 -0.981915
vn 0.000551 -0.189320 -0.981915
vn 0.000000 -0.187631 -0.982240
vn -0.004124 -0.048703 -0.998805
vn 0.000000 -0.187631 -0.982240
vn 0.000000 -0.187631 -0.982239
vn 0.000000 -0.033405 -0.999442
vn -0.998444 0.055740 0.001429
vn -0.998306 0.058178 0.000000
vn -0.998306 0.058178 0.000000
vn -0.998444 0.055750 -0.001467
vn -0.999476 0.025835 -0.019521
vn -0.999487 0.025820 0.018944
vn 0.000000 -1.000000 0.000000
vn 0.000000 -1.000000 0.000000
vn 0.000000 -1.000000 0.000000
vn 0.000000 -1.000000 0.000000
vn 0.000000 -1.000000 0.000000
vn 0.000000 -1.000000 0.000000
vn 0.000000 -1.000000 0.000000
vn 0.000000 -1.000000 0.000000
vn 0.998145 -0.060860 0.001550
vn 0.997981 -0.063516 0.000000
vn 0.997981 -0.063516 0.000000
vn 0.998145 -0.060868 -0.001601
vn 0.999372 -0.028399 -0.021205
vn 0.999387 -0.028405 0.020459
vn -0.707107 0.707107 0.000000
vn -0.707107 0.707107 0.000000
vn -0.707107 0.707107 0.000000
vn -0.707107 0.707107 0.000000
vn 0.000000 0.707107 0.707107
vn 0.000000 0.707107 0.707107
vn 0.000000 0.707107 0.707107
vn 0.000000 0.707107 0.707107
vn 0.000000 0.707107 0.707107
vn 0.000000 0.707107 0.707107
vn 0.000000 0.707108 -0.707106
vn 0.000000 0.707108 -0.707106
vn 0.000000 0.707108 -0.707106
vn 0.000000 0.707108 -0.707106
vn 0.000000 0.707108 -0.707106
vn 0.000000 0.707108 -0.707106
vn 0.000000 0.707107 0.707107
vn 0.000000 0.707107 0.707107
vn 0.707107 0.707107 0.000000
vn 0.707107 0.707107 0.000000
vn 0.707107 0.707107 0.000000
vn 0.707107 0.707107 0.000000
vn 0.000000 0.707108 -0.707106
vn 0.000000 0.707108 -0.707106
vn -0.706920 -0.001932 -0.707291
vn -0.706920 -0.001932 -0.707291
vn -0.706920 -0.001932 -0.707291
vn -0.706920 -0.001932 -0.707291
vn -0.580197 -0.814476 -0.000312
vn -0.580197 -0.814476 -0.000312
vn -0.580197 -0.814476 -0.000312
vn -0.580197 -0.814476 -0.000312
vn 0.681617 -0.000845 -0.731709
vn 0.681617 -0.000845 -0.731709
vn 0.681617 -0.000845 -0.731709
vn 0.681617 -0.000845 -0.731709
vn 0.547129 -0.837048 0.000428
vn 0.547129 -0.837048 0.000428
vn 0.547129 -0.837048 0.000428
vn 0.547129 -0.837048 0.000428
vn 0.682750 -0.001721 0.730650
vn 0.682750 -0.001721 0.730650
vn 0.682750 -0.001721 0.730650
vn 0.682750 -0.001721 0.730650
vn -0.708503 -0.001314 0.705706
vn -0.708503 -0.001314 0.705706
vn -0.708503 -0.001314 0.705706
vn -0.708503 -0.001314 0.705706
vn -0.682751 -0.001721 -0.730649
vn -0.682751 -0.001721 -0.730649
vn -0.682751 -0.001721 -0.730649
vn -0.682751 -0.001721 -0.730649
vn -0.547129 -0.837048 -0.000428
vn -0.547129 -0.837048 -0.000428
vn -0.547129 -0.837048 -0.000428
vn -0.547129 -0.837048 -0.000428
vn -0.681615 -0.000845 0.731710
vn -0.681615 -0.000845 0.731710
vn -0.681615 -0.000845 0.731710
vn -0.681615 -0.000845 0.731710
vn 0.708504 -0.001314 -0.705705
vn 0.708504 -0.001314 -0.705705
vn 0.708504 -0.001314 -0.705705
vn 0.708504 -0.001314 -0.705705
vn 0.580197 -0.814476 0.000312
vn 0.580197 -0.814476 0.000312
vn 0.580197 -0.814476 0.000312
vn 0.580197 -0.814476 0.000312
vn 0.706919 -0.001933 0.707292
vn 0.706919 -0.001933 0.707292
vn 0.706919 -0.001933 0.707292
vn 0.706919 -0.001933 0.707292
vn 0.000000 -0.000001 1.000000
vn 0.000000 -0.000001 1.000000
vn 0.000000 -0.000001 1.000000
vn 0.000000 -0.000001 1.000000
vn 0.000000 1.000000 0.000000
vn 0.000000 1.000000 0.000000
vn 0.000000 1.000000 0.000000
vn 0.000000 1.000000 0.000000
vn 0.000000 -0.000001 -1.000000
vn 0.000000 -0.000001 -1.000000
vn 0.000000 -0.000001 -1.000000
vn 0.000000 -0.000001 -1.000000
vn 0.000000 -1.000000 0.000000
vn 0.000000 -1.000000 0.000000
vn 0.000000 -1.000000 0.000000
vn 0.000000 -1.000000 0.000000
vn 1.000000 -0.000000 0.000000
vn 1.000000 -0.000000 0.000000
vn 1.000000 -0.000000 0.000000
vn 1.000000 -0.000000 0.000000
vn -1.000000 -0.000000 0.000000
vn -1.000000 -0.000000 0.000000
vn -1.000000 -0.000000 0.000000
vn -1.000000 -0.000000 0.000000
vn 0.000000 -0.000001 -1.000000
vn 0.000000 -0.000001 -1.000000
vn 0.000000 -0.000001 -1.000000
vn 0.000000 -0.000001 -1.000000
vn 0.000000 -1.000000 -0.000000
vn 0.000000 -1.000000 -0.000000
vn 0.000000 -1.000000 -0.000000
vn 0.000000 -1.000000 -0.000000
vn 0.000000 -0.000001 1.000000
vn 0.000000 -0.000001 1.000000
vn 0.000000 -0.000001 1.000000
vn 0.000000 -0.000001 1.000000
vn 0.000000 1.000000 0.000000
vn 0.000000 1.000000 0.000000
vn 0.000000 1.000000 0.000000
vn 0.000000 1.000000 0.000000
vn 0.000000 0.000000 -1.000000
vn 0.000000 0.000000 -1.000000
vn 0.000000 0.000000 1.000000
vn 0.000000 0.000000 1.000000
vn 0.000000 0.000000 -1.000000
vn 0.000000 0.000000 -1.000000
vn 0.000000 0.000000 1.000000
vn 0.000000 0.000000 1.000000
vn 0.998608 -0.052540 0.004566
vn 0.999512 -0.021612 0.022542
vn 0.998613 -0.052467 -0.004318
vn 0.999532 -0.021443 -0.021814
vn -0.998332 0.057515 0.005105
vn -0.999416 0.023586 0.024711
vn -0.998338 0.057441 -0.004777
vn -0.999444 0.023397 -0.023767
vn -0.998608 -0.052538 -0.004566
vn -0.999512 -0.021612 -0.022542
vn -0.998613 -0.052465 0.004318
vn -0.999532 -0.021442 0.021814
vn 0.998331 0.057516 -0.005105
vn 0.999416 0.023587 -0.024711
vn 0.998337 0.057442 0.004777
vn 0.999444 0.023398 0.023767
vn -0.532860 -0.611061 -0.585376
vn -0.532860 -0.611061 -0.585376
vn -0.532860 -0.611061 -0.585376
vn -0.532860 -0.611061 -0.585376
vn 0.174533 -0.689194 -0.703242
vn 0.174533 -0.689194 -0.703242
vn 0.174531 -0.689195 0.703242
vn 0.174531 -0.689195 0.703242
vn -0.532857 -0.611063 0.585377
vn -0.532856 -0.611063 0.585377
vn -0.532856 -0.611063 0.585377
vn -0.532856 -0.611063 0.585377
vn -0.174531 -0.689195 -0.703242
vn -0.174531 -0.689195 -0.703242
vn -0.174532 -0.689195 0.703242
vn -0.174532 -0.689195 0.703242
vn 0.532859 -0.611061 -0.585377
vn 0.532859 -0.611061 -0.585377
vn 0.532859 -0.611061 -0.585377
vn 0.532859 -0.611061 -0.585377
vn 0.532857 -0.611064 0.585376
vn 0.532857 -0.611064 0.585376
vn 0.532857 -0.611064 0.585376
vn 0.532857 -0.611064 0.585376
s 1
g pCube1
usemtl initialShadingGroup
f 3/40/1 13/57/2 14/8/3 5/12/4
s off
f 4/1/5 2/3/6 7/20/7 6/4/8
s 2
f 16/7/9 1/2/10 8/11/11 15/15/12
s off
f 1/2/13 3/40/14 5/12/15 8/11/16
s 3
f 5/12/17 14/8/18 57/97/19 56/63/20 52/27/21 51/96/22
s off
f 6/4/23 7/20/24 97/110/25 96/109/26 92/19/27 91/108/28
s 4
f 15/15/29 8/11/30 71/102/31 70/65/32 66/29/33 65/101/34
s off
f 8/11/35 5/12/36 51/96/37 50/95/38 72/13/39 71/102/40
s 1
f 10/5/41 9/49/42 4/1/43 6/4/44
s 4
f 7/20/45 11/21/46 84/106/47 83/69/48 98/34/49 97/110/50
s 2
f 2/3/51 12/6/52 11/21/53 7/20/54
s 1
f 10/5/41 14/8/3 13/57/2 9/49/42
s 4
f 11/21/46 15/15/29 65/101/34 64/100/55 85/107/56 84/106/47
s 2
f 12/6/52 16/7/9 15/15/12 11/21/53
s off
f 18/73/57 19/75/58 24/82/59 22/10/60
f 19/75/61 20/76/62 23/81/63 24/82/64
f 20/76/65 17/9/66 21/79/67 23/81/68
f 17/9/69 18/73/70 22/10/71 21/79/72
f 26/14/73 25/85/74 29/18/75 30/91/76
f 25/85/77 27/87/78 32/94/79 29/18/80
f 27/87/81 28/88/82 31/93/83 32/94/84
f 28/88/85 26/14/86 30/91/87 31/93/88
s 5
f 55/28/89 59/17/90 63/99/91 62/71/92 18/73/93 17/9/94
s 6
f 69/30/95 72/13/96 50/95/97 49/77/98 21/79/99 22/10/100
s 3
f 78/105/101 77/104/102 58/98/103 57/97/19 14/8/18 10/5/104
f 79/31/105 78/105/101 10/5/104 6/4/106 91/108/107 90/67/108
s 7
f 82/32/109 86/16/110 76/103/111 75/83/112 25/85/113 26/14/114
s off
f 86/16/115 85/107/116 64/100/117 63/99/118 59/17/119 58/98/120 77/104/121 76/103/122
s 8
f 89/33/123 92/19/124 96/109/125 95/89/126 30/91/127 29/18/128
s off
f 33/36/129 34/37/130 37/23/131 38/22/132
s 9
f 34/37/133 33/36/134 35/59/135 36/38/136
f 36/38/136 35/59/135 47/52/137 48/62/138
s 10
f 38/22/139 37/23/140 40/61/141 39/39/142
f 39/39/142 40/61/141 45/54/143 46/58/144
s 9
f 41/44/145 42/55/146 48/62/138 47/52/137
s off
f 42/24/147 41/44/148 44/25/149 43/26/150
s 10
f 43/56/151 44/48/152 46/58/144 45/54/143
s off
f 49/77/153 52/27/154 53/41/155 54/78/156
f 54/78/157 53/41/158 73/66/159 74/80/160
f 56/63/161 55/28/162 61/74/163 60/64/164
f 60/64/165 61/74/166 68/72/167 67/42/168
f 62/71/169 66/29/170 67/42/171 68/72/172
f 70/65/173 69/30/174 74/80/175 73/66/176
f 75/83/177 79/31/178 80/50/179 81/84/180
f 81/84/181 80/50/182 87/70/183 88/86/184
f 83/69/185 82/32/186 88/86/187 87/70/188
f 90/67/189 89/33/190 94/92/191 93/68/192
f 93/68/193 94/92/194 100/90/195 99/51/196
f 95/89/197 98/34/198 99/51/199 100/90/200
s 11
f 1/46/201 16/35/202 35/59/203 33/36/204
s 12
f 34/37/205 36/38/206 40/61/207 37/23/208
s 13
f 38/22/209 39/39/210 13/57/211 3/40/212
s off
f 53/41/213 60/64/214 67/42/215 73/66/216
f 2/53/217 4/43/218 44/25/219 41/44/220
f 3/45/221 1/46/222 33/36/223 38/47/224
s 13
f 46/58/225 44/48/226 4/1/227 9/49/228
s off
f 87/70/229 80/50/230 93/68/231 99/51/232
s 11
f 47/52/233 12/60/234 2/53/235 41/44/236
s 12
f 45/54/237 48/62/238 42/55/239 43/56/240
s 13
f 9/49/228 13/57/211 39/39/210 46/58/225
s 11
f 47/52/233 35/59/203 16/35/202 12/60/234
s 12
f 45/54/237 40/61/207 36/38/206 48/62/238
s 3
f 53/41/241 52/27/21 56/63/20 60/64/242
s 4
f 67/42/243 66/29/33 70/65/32 73/66/244
s 3
f 80/50/245 79/31/105 90/67/108 93/68/246
s 4
f 99/51/247 98/34/49 83/69/48 87/70/248
s 5
f 62/71/92 68/72/249 19/75/250 18/73/93
f 68/72/249 61/74/251 20/76/252 19/75/250
f 61/74/251 55/28/89 17/9/94 20/76/252
s 6
f 49/77/98 54/78/253 23/81/254 21/79/99
f 54/78/253 74/80/255 24/82/256 23/81/254
f 74/80/255 69/30/95 22/10/100 24/82/256
s 7
f 75/83/112 81/84/257 27/87/258 25/85/113
f 81/84/257 88/86/259 28/88/260 27/87/258
f 88/86/259 82/32/109 26/14/114 28/88/260
s 8
f 95/89/126 100/90/261 31/93/262 30/91/127
f 100/90/261 94/92/263 32/94/264 31/93/262
f 94/92/263 89/33/123 29/18/128 32/94/264
s off
f 49/77/265 50/95/266 51/96/267 52/27/268
s 3
f 55/28/269 56/63/20 57/97/19 58/98/103 59/17/270
s 4
f 62/71/271 63/99/272 64/100/55 65/101/34 66/29/33
s off
f 69/30/273 70/65/274 71/102/275 72/13/276
s 3
f 75/83/277 76/103/278 77/104/102 78/105/101 79/31/105
s 4
f 82/32/279 83/69/48 84/106/47 85/107/56 86/16/280
s off
f 89/33/281 90/67/282 91/108/283 92/19/284
f 95/89/285 96/109/286 97/110/287 98/34/288
