<?xml version="1.0" encoding="utf-8"?>
<!-- Generator: Adobe Illustrator 13.0.0, SVG Export Plug-In . SVG Version: 6.00 Build 14948)  -->
<!DOCTYPE svg PUBLIC "-//W3C//DTD SVG 1.1//EN" "http://www.w3.org/Graphics/SVG/1.1/DTD/svg11.dtd">
<svg version="1.1" xmlns="http://www.w3.org/2000/svg" xmlns:xlink="http://www.w3.org/1999/xlink" x="0px" y="0px"
	 width="1800.001px" height="576px" viewBox="0 0 1800.001 576" enable-background="new 0 0 1800.001 576" xml:space="preserve">
<g id="Scans">
</g>
<g id="Black_Sea">
	
		<path display="none" fill="none" stroke="#ED1C24" stroke-width="18" stroke-linecap="round" stroke-linejoin="round" stroke-dasharray="0,12" d="
		M768.333,329c-0.667,28-2.658,51.333-14.658,68.667c-22.667-14-49.333-43.334-60.667-72.667c-4,23.333,11.333,68,53.095,90.584
		c-202.489,185.991-362.982,64.496-397.48,38.998c32.998-28.498,56.386-51.582,73.497-101.995
		C220.958,606.684,89.535,397.724,21.643,373.586c62.993-29.999,159.999-196.49,326.49-127.494l-179.501,83.996l251.987-8.999
		l217.489-91.496l-283.486,15C395.121,169.596,570.558,84.78,699.605,94.6c-19.263,16.4-25.93,57.067-19.597,70.4
		c7.667-34,21-50.667,32-62c2,9,3,22,12,32c-24,22-26,26-39,40c20,3,40,37,23,61s-18,62-15,77
		c49.333,19.333,138.333,8.667,155.333-3.333c-22,0-54-12.001-62.667-42C773.584,225.812,808.342,205,822.342,201
		s45.333-4,60.667,26.667C894.713,251.076,889.333,277,872,289l-15-24c16-14-2.786-43.265-24.992-33c-31.008,14.333-5,50,12,41
		c8,13,11,16,18,30c15-4,61.667-15.334,79.667-19.334c9.666-2.333,4.666-29.666-6.668-30.666c-8,3.333-19.332,10-32.666,22
		c3.333-13.333,14.666-35.333,40-33.333c27.931,2.205,49.213,30.009,50.666,126.667c1.334,88.667,106,154.667,182,141.667
		C1119.676,499.667,1013,447.751,1013,367c0-56-8.658-121.333-56.904-147.906c30.912-4.094,92.912,65.239,92.912,119.906
		c0,42,45,143,163,129c-71.008-15-140.674-63.333-141.674-126.333s-41.658-103-80.658-130c59,25,110.572,72.924,119.991,127.333
		c5.629,32.517,40.341,103,140.341,102c-76.341-33.333-111.655-58.997-119.92-103.412c-8.421-45.254-31.746-89.921-117.08-137.921
		c74.668,26,121.848,69.765,127.326,95.333c10,46.667,66.008,114.667,128.674,109c-45.341-19.666-95.027-62.572-108-113.666
		c-11.341-44.667-74.666-76.667-108-101.334c92.668,22,216.105,161.315,254.07,213.085c33,44.997,178.492,161.991,331.484,133.493
		c115.494-8.999,145.492-103.494,140.992-127.493c-14.998,23.998-27.213,31.582-53.213,38.249
		c-33.92,8.697-77.166,43.167-90.666,68.666c-73.498,25.499-246.102-37.919-312.668-129.333
		C1253.1,289.663,1184.342,230.333,1074.342,177c184,72.667,312.367,66.791,375.23,6.096
		c43.498-41.998,148.492-58.498,208.488-29.999c10.281,36.57,42.898,64.143,69.615,73.236c26.412,8.99,41.5,30.501,40,56
		c30-64.667-41.334-138.667-99.115-150.235c-77.996-23.999-184.49-13.5-238.488,38.998c-39.807,38.701-170.738,62.567-341.73-9.429
		c64.497,0,156.666,10,181.238,22.929c-39.238-38.929-189.904-46.929-271.238-37.596c108-34,278.666-6,329.736,31.596
		c-52.402-66.929-207.07-79.596-355.07-48.263c100.668-50,274.668-37.333,364.07,10.765
		c-89.402-88.765-318.736-58.765-389.402-30.765c100.666-54,274-70,363.902-48.731C1164.342,0,989.094,72.102,957.596,84.101
		s-37.25-2.518-77.254-3.768c-21.333-0.667-33.342,8-35.342,9.333c-0.667,18-9.186,32.366-35.333,42.667
		c-22,8.667-46,12.666-58.667-2.667c3.333-4,10.675-9.333,19.342-11.333c12,6,50.667-6,54-24c-19.333-12.667-54,3.333-58,13.333
		c-14.675,3.333-29.342,14.666-36.675,24"/>
	
		<path display="none" opacity="0.5" fill="none" stroke="#FFFFFF" stroke-width="12" stroke-linecap="round" stroke-linejoin="round" stroke-dasharray="0,12" d="
		M768.333,329c-0.667,28-2.658,51.333-14.658,68.667c-22.667-14-49.333-43.334-60.667-72.667c-4,23.333,11.333,68,53.095,90.584
		c-202.489,185.991-362.982,64.496-397.48,38.998c32.998-28.498,56.386-51.582,73.497-101.995
		C220.958,606.684,89.535,397.724,21.643,373.586c62.993-29.999,159.999-196.49,326.49-127.494l-179.501,83.996l251.987-8.999
		l217.489-91.496l-283.486,15C395.121,169.596,570.558,84.78,699.605,94.6c-19.263,16.4-25.93,57.067-19.597,70.4
		c7.667-34,21-50.667,32-62c2,9,3,22,12,32c-24,22-26,26-39,40c20,3,40,37,23,61s-18,62-15,77
		c49.333,19.333,138.333,8.667,155.333-3.333c-22,0-54-12.001-62.667-42C773.584,225.812,808.342,205,822.342,201
		s45.333-4,60.667,26.667C894.713,251.076,889.333,277,872,289l-15-24c16-14-2.786-43.265-24.992-33c-31.008,14.333-5,50,12,41
		c8,13,11,16,18,30c15-4,61.667-15.334,79.667-19.334c9.666-2.333,4.666-29.666-6.668-30.666c-8,3.333-19.332,10-32.666,22
		c3.333-13.333,14.666-35.333,40-33.333c27.931,2.205,49.213,30.009,50.666,126.667c1.334,88.667,106,154.667,182,141.667
		C1119.676,499.667,1013,447.751,1013,367c0-56-8.658-121.333-56.904-147.906c30.912-4.094,92.912,65.239,92.912,119.906
		c0,42,45,143,163,129c-71.008-15-140.674-63.333-141.674-126.333s-41.658-103-80.658-130c59,25,110.572,72.924,119.991,127.333
		c5.629,32.517,40.341,103,140.341,102c-76.341-33.333-111.655-58.997-119.92-103.412c-8.421-45.254-31.746-89.921-117.08-137.921
		c74.668,26,121.848,69.765,127.326,95.333c10,46.667,66.008,114.667,128.674,109c-45.341-19.666-95.027-62.572-108-113.666
		c-11.341-44.667-74.666-76.667-108-101.334c92.668,22,216.105,161.315,254.07,213.085c33,44.997,178.492,161.991,331.484,133.493
		c115.494-8.999,145.492-103.494,140.992-127.493c-14.998,23.998-27.213,31.582-53.213,38.249
		c-33.92,8.697-77.166,43.167-90.666,68.666c-73.498,25.499-246.102-37.919-312.668-129.333
		C1253.1,289.663,1184.342,230.333,1074.342,177c184,72.667,312.367,66.791,375.23,6.096
		c43.498-41.998,148.492-58.498,208.488-29.999c10.281,36.57,42.898,64.143,69.615,73.236c26.412,8.99,41.5,30.501,40,56
		c30-64.667-41.334-138.667-99.115-150.235c-77.996-23.999-184.49-13.5-238.488,38.998c-39.807,38.701-170.738,62.567-341.73-9.429
		c64.497,0,156.666,10,181.238,22.929c-39.238-38.929-189.904-46.929-271.238-37.596c108-34,278.666-6,329.736,31.596
		c-52.402-66.929-207.07-79.596-355.07-48.263c100.668-50,274.668-37.333,364.07,10.765
		c-89.402-88.765-318.736-58.765-389.402-30.765c100.666-54,274-70,363.902-48.731C1164.342,0,989.094,72.102,957.596,84.101
		s-37.25-2.518-77.254-3.768c-21.333-0.667-33.342,8-35.342,9.333c-0.667,18-9.186,32.366-35.333,42.667
		c-22,8.667-46,12.666-58.667-2.667c3.333-4,10.675-9.333,19.342-11.333c12,6,50.667-6,54-24c-19.333-12.667-54,3.333-58,13.333
		c-14.675,3.333-29.342,14.666-36.675,24"/>
</g>
<g id="Deep_Sea">
	<g>
		
			<line fill="none" stroke="#000000" stroke-width="0.9" stroke-linecap="round" stroke-linejoin="round" stroke-miterlimit="3.8637" x1="19.504" y1="539.252" x2="19.504" y2="544.408"/>
		
			<line fill="none" stroke="#000000" stroke-width="0.9" stroke-linecap="round" stroke-linejoin="round" stroke-miterlimit="3.8637" x1="23.746" y1="539.973" x2="23.746" y2="544.408"/>
		
			<path fill="none" stroke="#000000" stroke-width="0.9" stroke-linecap="round" stroke-linejoin="round" stroke-miterlimit="3.8637" d="
			M23.746,539.973c1.41-0.807,3.297-0.887,4.186-0.887"/>
		
			<path fill="none" stroke="#000000" stroke-width="0.9" stroke-linecap="round" stroke-linejoin="round" stroke-miterlimit="3.8637" d="
			M23.746,542.191c1.357-0.453,2.262-0.453,2.715-0.453"/>
		
			<path fill="none" stroke="#000000" stroke-width="0.9" stroke-linecap="round" stroke-linejoin="round" stroke-miterlimit="3.8637" d="
			M27.932,543.521c-1.852,0.832-3.201,0.832-4.186,0.887"/>
		
			<line fill="none" stroke="#000000" stroke-width="0.9" stroke-linecap="round" stroke-linejoin="round" stroke-miterlimit="3.8637" x1="30.773" y1="539.529" x2="30.773" y2="543.84"/>
		
			<path fill="none" stroke="#000000" stroke-width="0.9" stroke-linecap="round" stroke-linejoin="round" stroke-miterlimit="3.8637" d="
			M29.887,539.529c2.66-0.443,4.754-0.021,4.754,2.195c0,2.133-2.094,2.115-4.754,2.115"/>
		
			<line fill="none" stroke="#000000" stroke-width="0.9" stroke-linecap="round" stroke-linejoin="round" stroke-miterlimit="3.8637" x1="37.051" y1="539.529" x2="37.051" y2="544.408"/>
		
			<path fill="none" stroke="#000000" stroke-width="0.9" stroke-linecap="round" stroke-linejoin="round" stroke-miterlimit="3.8637" d="
			M36.164,539.529c2.66-0.443,4.949,0.002,4.891,2.219c-0.059,2.109-2.23,2.66-4.891,2.66"/>
		
			<path fill="none" stroke="#000000" stroke-width="0.9" stroke-linecap="round" stroke-linejoin="round" stroke-miterlimit="3.8637" d="
			M43.328,539.529c0,1.775,0.904,1.775,1.578,1.775c1.082,0,1.562-0.859,1.969-2.219"/>
		
			<line fill="none" stroke="#000000" stroke-width="0.9" stroke-linecap="round" stroke-linejoin="round" stroke-miterlimit="3.8637" x1="17.287" y1="549.662" x2="21.404" y2="549.219"/>
		
			<path fill="none" stroke="#000000" stroke-width="0.9" stroke-linecap="round" stroke-linejoin="round" stroke-miterlimit="3.8637" d="
			M23.428,552.629L24.633,547c0.887,0.887,2.217,4.742,2.217,6.072"/>
		
			<path fill="none" stroke="#000000" stroke-width="0.9" stroke-linecap="round" stroke-linejoin="round" stroke-miterlimit="3.8637" d="
			M29,547c2.662-0.408,3.225-0.502,3.24,0.887c0.004,0.355-1.023,1.775-3.24,1.775c1.773,0,2.354,0.443,3.24,2.66"/>
		
			<line fill="none" stroke="#000000" stroke-width="0.9" stroke-linecap="round" stroke-linejoin="round" stroke-miterlimit="3.8637" x1="23.746" y1="550.412" x2="26.85" y2="549.969"/>
		
			<path fill="none" stroke="#000000" stroke-width="0.9" stroke-linecap="round" stroke-linejoin="round" stroke-miterlimit="3.8637" d="
			M34.391,547.443l1.773,4.879c0.887-0.887,2.217-3.992,2.217-5.322"/>
		
			<path fill="none" stroke="#000000" stroke-width="0.9" stroke-linecap="round" stroke-linejoin="round" stroke-miterlimit="3.8637" d="
			M43.066,552.629L44.271,547c1.738,1.264,1.941,4.744,2.035,6.072c0,0-0.123-0.008-0.619-0.08"/>
		
			<line fill="none" stroke="#000000" stroke-width="0.9" stroke-linecap="round" stroke-linejoin="round" stroke-miterlimit="3.8637" x1="43.51" y1="549.943" x2="46.307" y2="549.5"/>
		
			<path fill="none" stroke="#000000" stroke-width="0.9" stroke-linecap="round" stroke-linejoin="round" stroke-miterlimit="3.8637" d="
			M41.041,547.443c-0.443,2.219-0.443,2.662-0.443,4.436"/>
		
			<path fill="none" stroke="#000000" stroke-width="0.9" stroke-linecap="round" stroke-linejoin="round" stroke-miterlimit="3.8637" d="
			M45.01,541.305c0.443,2.217-0.125,1.33-0.125,3.104"/>
		
			<path fill="none" stroke="#000000" stroke-width="0.9" stroke-linecap="round" stroke-linejoin="round" stroke-miterlimit="3.8637" d="
			M21.404,546.432c-0.221,2.064-0.201,4.006,0,6.072"/>
		
			<path fill="none" stroke="#000000" stroke-width="0.9" stroke-linecap="round" stroke-linejoin="round" stroke-miterlimit="3.8637" d="
			M18.334,546.984c-0.639,1.988-0.543,3.271-0.342,5.338"/>
		
			<path fill="none" stroke="#000000" stroke-width="0.9" stroke-linecap="round" stroke-linejoin="round" stroke-miterlimit="3.8637" d="
			M28.994,548.191c0.283,2.061,0.154,2.061,0.006,4.131"/>
		
			<path fill="none" stroke="#000000" stroke-width="0.9" stroke-linecap="round" stroke-linejoin="round" stroke-miterlimit="3.8637" d="
			M17.316,540.605l-0.029-0.633c0.84-0.932,4.436-0.887,5.322-0.887"/>
	</g>
	<g>
		<rect x="0" y="72" fill="#2E3192" width="1800" height="504"/>
		<rect x="0" y="71.429" fill="#2E3293" width="1800" height="500.571"/>
		<rect x="0" y="70.857" fill="#2D3393" width="1800" height="497.142"/>
		<rect x="0" y="70.286" fill="#2D3494" width="1800" height="493.713"/>
		<rect x="0.001" y="69.714" fill="#2D3595" width="1800" height="490.286"/>
		<rect x="0" y="69.143" fill="#2C3696" width="1800" height="486.856"/>
		<rect y="68.571" fill="#2C3796" width="1799.999" height="483.428"/>
		<rect x="0" y="68" fill="#2B3897" width="1800" height="479.999"/>
		<rect x="0.001" y="67.429" fill="#2B3998" width="1799.999" height="476.57"/>
		<rect x="0" y="66.857" fill="#2B3A99" width="1800" height="473.142"/>
		<rect x="0" y="66.285" fill="#2A3B99" width="1800" height="469.714"/>
		<rect x="0" y="65.714" fill="#2A3C9A" width="1800" height="466.285"/>
		<rect x="0" y="65.143" fill="#2A3D9B" width="1800" height="462.856"/>
		<rect x="0" y="64.571" fill="#293E9C" width="1800" height="459.428"/>
		<rect x="0" y="64" fill="#293F9C" width="1800" height="456"/>
		<rect x="0" y="63.428" fill="#29409D" width="1800" height="452.571"/>
		<rect x="0" y="62.857" fill="#28419E" width="1800" height="449.142"/>
		<rect x="0" y="62.286" fill="#28429F" width="1800" height="445.713"/>
		<rect y="61.714" fill="#27439F" width="1800" height="442.285"/>
		<rect x="0" y="61.143" fill="#2744A0" width="1800" height="438.856"/>
		<rect x="0.001" y="60.571" fill="#2745A1" width="1799.999" height="435.428"/>
		<rect x="0.001" y="60" fill="#2646A2" width="1799.999" height="431.999"/>
		<rect y="59.428" fill="#2647A2" width="1800" height="428.571"/>
		<rect x="0" y="58.857" fill="#2648A3" width="1800" height="425.142"/>
		<rect x="0.001" y="58.286" fill="#2549A4" width="1799.999" height="421.714"/>
		<rect x="0" y="57.714" fill="#254AA4" width="1800" height="418.285"/>
		<rect x="0" y="57.143" fill="#254BA5" width="1800" height="414.856"/>
		<rect y="56.571" fill="#244CA6" width="1800" height="411.428"/>
		<rect x="0" y="56" fill="#244DA7" width="1800" height="407.999"/>
		<rect x="0" y="55.429" fill="#234EA7" width="1800" height="404.57"/>
		<rect x="0" y="54.856" fill="#234FA8" width="1800" height="401.143"/>
		<rect x="0" y="54.286" fill="#2350A9" width="1800" height="397.713"/>
		<rect x="0" y="53.714" fill="#2251AA" width="1800" height="394.286"/>
		<rect x="0" y="53.143" fill="#2252AA" width="1800" height="390.856"/>
		<rect y="52.571" fill="#2253AB" width="1800" height="387.428"/>
		<rect x="0" y="52" fill="#2154AC" width="1800" height="383.999"/>
		<rect x="0.001" y="51.429" fill="#2155AD" width="1799.999" height="380.57"/>
		<rect x="0.001" y="50.857" fill="#2056AD" width="1799.999" height="377.142"/>
		<rect y="50.285" fill="#2057AE" width="1800" height="373.714"/>
		<rect x="0" y="49.714" fill="#2058AF" width="1800" height="370.285"/>
		<rect x="0.001" y="49.143" fill="#1F59B0" width="1799.999" height="366.856"/>
		<rect x="0" y="48.571" fill="#1F5AB0" width="1800" height="363.428"/>
		<rect x="0" y="48" fill="#1F5BB1" width="1800" height="360"/>
		<rect y="47.429" fill="#1E5CB2" width="1800" height="356.57"/>
		<rect x="0" y="46.857" fill="#1E5DB2" width="1800" height="353.143"/>
		<rect x="0" y="46.286" fill="#1E5EB3" width="1800" height="349.713"/>
		<rect y="45.714" fill="#1D5FB4" width="1800" height="346.285"/>
		<rect x="0.001" y="45.143" fill="#1D60B5" width="1799.999" height="342.856"/>
		<rect x="0" y="44.571" fill="#1C61B5" width="1800" height="339.428"/>
		<rect y="44" fill="#1C62B6" width="1800" height="335.999"/>
		<rect y="43.428" fill="#1C63B7" width="1800" height="332.57"/>
		<rect x="0" y="42.856" fill="#1B64B8" width="1800" height="329.143"/>
		<rect x="0.001" y="42.286" fill="#1B65B8" width="1799.999" height="325.714"/>
		<rect x="0.001" y="41.714" fill="#1B66B9" width="1799.999" height="322.285"/>
		<rect x="0" y="41.143" fill="#1A67BA" width="1800" height="318.856"/>
		<rect y="40.571" fill="#1A68BB" width="1800" height="315.428"/>
		<rect x="0.001" y="40" fill="#1A69BB" width="1799.999" height="311.999"/>
		<rect x="0" y="39.429" fill="#196ABC" width="1800" height="308.57"/>
		<rect x="0" y="38.856" fill="#196BBD" width="1800" height="305.143"/>
		<rect x="0" y="38.285" fill="#186CBE" width="1800" height="301.714"/>
		<rect x="0.001" y="37.714" fill="#186DBE" width="1799.999" height="298.286"/>
		<rect x="0" y="37.143" fill="#186EBF" width="1800" height="294.856"/>
		<rect y="36.571" fill="#176FC0" width="1800" height="291.428"/>
		<rect x="0" y="36" fill="#1770C1" width="1800" height="287.999"/>
		<rect x="0" y="35.429" fill="#1770C1" width="1800" height="284.57"/>
		<rect x="0" y="34.857" fill="#1671C2" width="1800" height="281.142"/>
		<rect x="0" y="34.286" fill="#1672C3" width="1800" height="277.713"/>
		<rect x="0" y="33.714" fill="#1673C3" width="1800" height="274.285"/>
		<rect x="0" y="33.143" fill="#1574C4" width="1800" height="270.856"/>
		<rect x="0" y="32.571" fill="#1575C5" width="1800" height="267.428"/>
		<rect x="0" y="32" fill="#1476C6" width="1800" height="264"/>
		<rect x="0" y="31.429" fill="#1477C6" width="1800" height="260.57"/>
		<rect y="30.857" fill="#1478C7" width="1800" height="257.142"/>
		<rect x="0.001" y="30.286" fill="#1379C8" width="1799.999" height="253.713"/>
		<rect x="0" y="29.714" fill="#137AC9" width="1800" height="250.285"/>
		<rect x="0" y="29.143" fill="#137BC9" width="1800" height="246.856"/>
		<rect y="28.571" fill="#127CCA" width="1800" height="243.428"/>
		<rect x="0.001" y="28" fill="#127DCB" width="1799.999" height="240"/>
		<rect x="0" y="27.429" fill="#127ECC" width="1800" height="236.571"/>
		<rect x="0" y="26.857" fill="#117FCC" width="1800" height="233.142"/>
		<rect y="26.286" fill="#1180CD" width="1800" height="229.713"/>
		<rect y="25.714" fill="#1081CE" width="1800" height="226.285"/>
		<rect x="0.001" y="25.143" fill="#1082CF" width="1799.999" height="222.856"/>
		<rect x="0" y="24.571" fill="#1083CF" width="1800" height="219.428"/>
		<rect x="0" y="24" fill="#0F84D0" width="1800" height="215.999"/>
		<rect y="23.429" fill="#0F85D1" width="1800" height="212.571"/>
		<rect x="0.001" y="22.857" fill="#0F86D1" width="1799.999" height="209.143"/>
		<rect x="0" y="22.286" fill="#0E87D2" width="1800" height="205.714"/>
		<rect x="0" y="21.714" fill="#0E88D3" width="1800" height="202.286"/>
		<rect y="21.143" fill="#0E89D4" width="1800" height="198.857"/>
		<rect x="0.001" y="20.571" fill="#0D8AD4" width="1799.999" height="195.429"/>
		<rect x="0" y="20" fill="#0D8BD5" width="1800" height="191.999"/>
		<rect x="0" y="19.429" fill="#0C8CD6" width="1800" height="188.57"/>
		<rect x="0" y="18.857" fill="#0C8DD7" width="1800" height="185.142"/>
		<rect x="0.001" y="18.286" fill="#0C8ED7" width="1799.999" height="181.714"/>
		<rect x="0" y="17.714" fill="#0B8FD8" width="1800" height="178.285"/>
		<rect x="0" y="17.143" fill="#0B90D9" width="1800" height="174.857"/>
		<rect x="0" y="16.571" fill="#0B91DA" width="1800" height="171.428"/>
		<rect x="0.001" y="16" fill="#0A92DA" width="1799.999" height="168"/>
		<rect x="0" y="15.428" fill="#0A93DB" width="1800" height="164.572"/>
		<rect x="0" y="14.857" fill="#0994DC" width="1800" height="161.143"/>
		<rect x="0" y="14.286" fill="#0995DD" width="1800" height="157.713"/>
		<rect y="13.714" fill="#0996DD" width="1800" height="154.286"/>
		<rect x="0" y="13.143" fill="#0897DE" width="1800" height="150.856"/>
		<rect x="0" y="12.571" fill="#0898DF" width="1800" height="147.428"/>
		<rect x="0" y="12" fill="#0899E0" width="1800" height="144"/>
		<rect y="11.429" fill="#079AE0" width="1800" height="140.571"/>
		<rect x="0" y="10.857" fill="#079BE1" width="1800" height="137.143"/>
		<rect x="0" y="10.286" fill="#079CE2" width="1800" height="133.714"/>
		<rect x="0" y="9.714" fill="#069DE2" width="1800" height="130.286"/>
		<rect x="0" y="9.143" fill="#069EE3" width="1800" height="126.857"/>
		<rect x="0" y="8.571" fill="#059FE4" width="1800" height="123.429"/>
		<rect x="0" y="8" fill="#05A0E5" width="1800" height="120"/>
		<rect x="0" y="7.429" fill="#05A1E5" width="1800" height="116.571"/>
		<rect x="0" y="6.857" fill="#04A2E6" width="1800" height="113.143"/>
		<rect x="0" y="6.286" fill="#04A3E7" width="1800" height="109.714"/>
		<rect x="0" y="5.714" fill="#04A4E8" width="1800" height="106.286"/>
		<rect x="0" y="5.143" fill="#03A5E8" width="1800" height="102.857"/>
		<rect x="0" y="4.571" fill="#03A6E9" width="1800" height="99.429"/>
		<rect x="0" y="4" fill="#03A7EA" width="1800" height="96"/>
		<rect x="0" y="3.428" fill="#02A8EB" width="1800" height="92.572"/>
		<rect x="0" y="2.857" fill="#02A9EB" width="1800" height="89.143"/>
		<rect x="0" y="2.286" fill="#01AAEC" width="1800" height="85.714"/>
		<rect x="0.001" y="1.714" fill="#01ABED" width="1799.999" height="82.286"/>
		<rect x="0" y="1.143" fill="#01ACEE" width="1800" height="78.857"/>
		<rect x="0" y="0.571" fill="#00ADEE" width="1800" height="75.429"/>
		<rect x="0" fill="#00AEEF" width="1800" height="72"/>
	</g>
	<g>
		<g>
			
				<line fill="none" stroke="#FFFFFF" stroke-width="1.8" stroke-linecap="round" stroke-linejoin="round" stroke-miterlimit="3.8637" x1="1723.943" y1="555.482" x2="1732.176" y2="554.596"/>
			
				<path fill="none" stroke="#FFFFFF" stroke-width="1.8" stroke-linecap="round" stroke-linejoin="round" stroke-miterlimit="3.8637" d="
				M1736.223,561.416l2.412-11.254c1.773,1.773,4.434,9.48,4.434,12.141"/>
			
				<path fill="none" stroke="#FFFFFF" stroke-width="1.8" stroke-linecap="round" stroke-linejoin="round" stroke-miterlimit="3.8637" d="
				M1747.367,550.162c5.324-0.82,6.449-1.008,6.482,1.773c0.008,0.707-2.049,3.547-6.482,3.547c3.547,0,4.709,0.887,6.482,5.32"/>
			
				<line fill="none" stroke="#FFFFFF" stroke-width="1.8" stroke-linecap="round" stroke-linejoin="round" stroke-miterlimit="3.8637" x1="1736.859" y1="556.982" x2="1743.068" y2="556.096"/>
			
				<path fill="none" stroke="#FFFFFF" stroke-width="1.8" stroke-linecap="round" stroke-linejoin="round" stroke-miterlimit="3.8637" d="
				M1758.148,551.049l3.547,9.754c1.773-1.773,4.436-7.98,4.436-10.641"/>
			
				<path fill="none" stroke="#FFFFFF" stroke-width="1.8" stroke-linecap="round" stroke-linejoin="round" stroke-miterlimit="3.8637" d="
				M1775.5,561.416l2.41-11.254c3.479,2.523,3.885,9.488,4.072,12.141c0,0-0.246-0.016-1.24-0.16"/>
			
				<line fill="none" stroke="#FFFFFF" stroke-width="1.8" stroke-linecap="round" stroke-linejoin="round" stroke-miterlimit="3.8637" x1="1776.387" y1="556.045" x2="1781.982" y2="555.158"/>
			
				<path fill="none" stroke="#FFFFFF" stroke-width="1.8" stroke-linecap="round" stroke-linejoin="round" stroke-miterlimit="3.8637" d="
				M1771.451,551.049c-0.887,4.434-0.887,5.32-0.887,8.867"/>
			
				<path fill="none" stroke="#FFFFFF" stroke-width="1.8" stroke-linecap="round" stroke-linejoin="round" stroke-miterlimit="3.8637" d="
				M1732.176,549.025c-0.441,4.125-0.402,8.012,0,12.141"/>
			
				<path fill="none" stroke="#FFFFFF" stroke-width="1.8" stroke-linecap="round" stroke-linejoin="round" stroke-miterlimit="3.8637" d="
				M1726.035,550.127c-1.277,3.98-1.084,6.547-0.682,10.676"/>
			
				<path fill="none" stroke="#FFFFFF" stroke-width="1.8" stroke-linecap="round" stroke-linejoin="round" stroke-miterlimit="3.8637" d="
				M1747.355,552.541c0.568,4.125,0.309,4.125,0.012,8.262"/>
		</g>
		<g>
			
				<line fill="none" stroke="#FFFFFF" stroke-width="1.8" stroke-linecap="round" stroke-linejoin="round" stroke-miterlimit="3.8637" x1="1659.506" y1="550.674" x2="1659.506" y2="560.982"/>
			
				<line fill="none" stroke="#FFFFFF" stroke-width="1.8" stroke-linecap="round" stroke-linejoin="round" stroke-miterlimit="3.8637" x1="1667.988" y1="552.115" x2="1667.988" y2="560.982"/>
			
				<path fill="none" stroke="#FFFFFF" stroke-width="1.8" stroke-linecap="round" stroke-linejoin="round" stroke-miterlimit="3.8637" d="
				M1667.988,552.115c2.82-1.617,6.596-1.773,8.371-1.773"/>
			
				<path fill="none" stroke="#FFFFFF" stroke-width="1.8" stroke-linecap="round" stroke-linejoin="round" stroke-miterlimit="3.8637" d="
				M1667.988,556.549c2.715-0.906,4.523-0.906,5.43-0.906"/>
			
				<path fill="none" stroke="#FFFFFF" stroke-width="1.8" stroke-linecap="round" stroke-linejoin="round" stroke-miterlimit="3.8637" d="
				M1676.359,559.209c-3.703,1.668-6.402,1.668-8.371,1.773"/>
			
				<line fill="none" stroke="#FFFFFF" stroke-width="1.8" stroke-linecap="round" stroke-linejoin="round" stroke-miterlimit="3.8637" x1="1682.043" y1="551.229" x2="1682.043" y2="559.846"/>
			
				<path fill="none" stroke="#FFFFFF" stroke-width="1.8" stroke-linecap="round" stroke-linejoin="round" stroke-miterlimit="3.8637" d="
				M1680.27,551.229c5.322-0.887,9.508-0.047,9.508,4.387c0,4.266-4.186,4.23-9.508,4.23"/>
			
				<line fill="none" stroke="#FFFFFF" stroke-width="1.8" stroke-linecap="round" stroke-linejoin="round" stroke-miterlimit="3.8637" x1="1694.598" y1="551.229" x2="1694.598" y2="560.982"/>
			
				<path fill="none" stroke="#FFFFFF" stroke-width="1.8" stroke-linecap="round" stroke-linejoin="round" stroke-miterlimit="3.8637" d="
				M1692.824,551.229c5.322-0.887,9.9,0,9.781,4.434c-0.115,4.219-4.459,5.32-9.781,5.32"/>
			
				<path fill="none" stroke="#FFFFFF" stroke-width="1.8" stroke-linecap="round" stroke-linejoin="round" stroke-miterlimit="3.8637" d="
				M1707.152,551.229c0,3.547,1.811,3.547,3.158,3.547c2.164,0,3.123-1.719,3.938-4.434"/>
			
				<path fill="none" stroke="#FFFFFF" stroke-width="1.8" stroke-linecap="round" stroke-linejoin="round" stroke-miterlimit="3.8637" d="
				M1710.518,554.775c0.887,4.434-0.25,2.66-0.25,6.207"/>
			
				<path fill="none" stroke="#FFFFFF" stroke-width="1.8" stroke-linecap="round" stroke-linejoin="round" stroke-miterlimit="3.8637" d="
				M1655.129,553.377l-0.057-1.262c1.678-1.867,8.869-1.773,10.643-1.773"/>
		</g>
	</g>
</g>
<g id="Body_Color">
	<ellipse fill="#231F20" cx="852.5" cy="135" rx="105.5" ry="48"/>
	<ellipse fill="#8A0606" cx="852.5" cy="135" rx="105.5" ry="48"/>
	<path fill="#ED1C24" d="M768.333,329c-0.667,28-2.658,51.333-14.658,68.667c-22.667-14-49.333-43.334-60.667-72.667
		c-4,23.333,11.333,68,53.095,90.584c-202.489,185.991-362.982,64.496-397.48,38.998c32.998-28.498,56.386-51.582,73.497-101.995
		C220.958,606.684,89.535,397.724,21.643,373.586c62.993-29.999,159.999-196.49,326.49-127.494l-179.501,83.996l251.987-8.999
		l217.489-91.496l-283.486,15C395.121,169.596,570.558,84.78,699.605,94.6c-19.263,16.4-25.93,57.067-19.597,70.4
		c7.667-34,21-50.667,32-62c2,9,3,22,12,32c-24,22-26,26-39,40c20,3,40,37,23,61s-18,62-15,77
		c49.333,19.333,138.333,8.667,155.333-3.333c-22,0-54-12.001-62.667-42C773.584,225.812,808.342,205,822.342,201
		s45.333-4,60.667,26.667C894.713,251.076,888.333,279,871,291c-6-10-4-13-14-26c16-14-2.786-43.265-24.992-33
		c-31.008,14.333-5,50,12,41c8,13,11,16,18,30c15-4,61.667-15.334,79.667-19.334c9.666-2.333,4.666-29.666-6.668-30.666
		c-8,3.333-19.332,10-32.666,22c3.333-13.333,14.666-35.333,40-33.333c27.931,2.205,49.213,30.009,50.666,126.667
		c1.334,88.667,106,154.667,182,141.667C1119.676,499.667,1013,447.751,1013,367c0-56-8.658-121.333-56.904-147.906
		c30.912-4.094,92.912,65.239,92.912,119.906c0,42,45,143,163,129c-71.008-15-140.674-63.333-141.674-126.333
		s-41.658-103-80.658-130c59,25,110.572,72.924,119.991,127.333c5.629,32.517,40.341,103,140.341,102
		c-76.341-33.333-111.655-58.997-119.92-103.412c-8.421-45.254-31.746-89.921-117.08-137.921
		c74.668,26,121.848,69.765,127.326,95.333c10,46.667,66.008,114.667,128.674,109c-45.341-19.666-95.027-62.572-108-113.666
		c-11.341-44.667-74.666-76.667-108-101.334c92.668,22,216.105,161.315,254.07,213.085c33,44.997,178.492,161.991,331.484,133.493
		c115.494-8.999,145.492-103.494,140.992-127.493c-14.998,23.998-27.213,31.582-53.213,38.249
		c-33.92,8.697-77.166,43.167-90.666,68.666c-73.498,25.499-246.102-37.919-312.668-129.333
		C1253.1,289.663,1184.342,230.333,1074.342,177c184,72.667,312.367,66.791,375.23,6.096
		c43.498-41.998,148.492-58.498,208.488-29.999c10.281,36.57,42.898,64.143,69.615,73.236c26.412,8.99,41.5,30.501,40,56
		c30-64.667-41.334-138.667-99.115-150.235c-77.996-23.999-184.49-13.5-238.488,38.998c-39.807,38.701-170.738,62.567-341.73-9.429
		c64.497,0,156.666,10,181.238,22.929c-39.238-38.929-189.904-46.929-271.238-37.596c108-34,278.666-6,329.736,31.596
		c-52.402-66.929-207.07-79.596-355.07-48.263c100.668-50,274.668-37.333,364.07,10.765
		c-89.402-88.765-318.736-58.765-389.402-30.765c100.666-54,274-70,363.902-48.731C1164.342,0,989.094,72.102,957.596,84.101
		s-37.25-2.518-77.254-3.768c-21.333-0.667-33.342,8-35.342,9.333c-0.667,18-9.186,32.366-35.333,42.667
		c-22,8.667-46,12.666-58.667-2.667c3.333-4,10.675-9.333,19.342-11.333c12,6,50.667-6,54-24c-19.333-12.667-54,3.333-58,13.333
		c-14.675,3.333-29.342,14.666-36.675,24"/>
	<polygon fill="#ED1C24" points="769.667,324.333 657,310 668.333,187.667 729,131.667 	"/>
</g>
<g id="Suckers">
	<path fill="none" stroke="#8A0606" stroke-width="12" stroke-linecap="round" stroke-linejoin="round" stroke-dasharray="0,24" d="
		M956.333,227c116,91.334-40,181.334,174.667,274.667"/>
	<path fill="none" stroke="#8A0606" stroke-width="12" stroke-linecap="round" stroke-linejoin="round" stroke-dasharray="0,24" d="
		M989.667,219c138.666,107.334,5.333,151.334,172,239.334"/>
	<path fill="none" stroke="#8A0606" stroke-width="12" stroke-linecap="round" stroke-linejoin="round" stroke-dasharray="0,24" d="
		M1016.333,209c165.334,96,52,154.667,191.334,218.667"/>
	<path fill="none" stroke="#8A0606" stroke-width="12" stroke-linecap="round" stroke-linejoin="round" stroke-dasharray="0,24" d="
		M1055,198.333c165.334,96,48,93.333,174.667,190"/>
	<path fill="none" stroke="#8A0606" stroke-width="12" stroke-linecap="round" stroke-linejoin="round" stroke-dasharray="0,24" d="
		M1095.667,157c32.666-1.333,76.666,2,114.666,9.333"/>
	<path fill="none" stroke="#8A0606" stroke-width="12" stroke-linecap="round" stroke-linejoin="round" stroke-dasharray="0,24" d="
		M1004,138c84.333-19,190-16,271,11"/>
	<path fill="none" stroke="#8A0606" stroke-width="12" stroke-linecap="round" stroke-linejoin="round" stroke-dasharray="0,24" d="
		M977,120c124.333-47,247-19.333,285-12"/>
	<path fill="none" stroke="#8A0606" stroke-width="12" stroke-linecap="round" stroke-linejoin="round" stroke-dasharray="0,24" d="
		M954,101c29.333-16,164-62,270-53"/>
	<path fill="none" stroke="#8A0606" stroke-width="12" stroke-linecap="round" stroke-linejoin="round" stroke-dasharray="0,24" d="
		M1754,233c-21-15-81-31-82-67"/>
	<path fill="none" stroke="#8A0606" stroke-width="12" stroke-linecap="round" stroke-linejoin="round" stroke-dasharray="0,24" d="
		M1746,213c-21-10-48-24-60-45"/>
	<path fill="none" stroke="#8A0606" stroke-width="12" stroke-linecap="round" stroke-linejoin="round" stroke-dasharray="0,24" d="
		M1680,498c21.001-14.999,46-31,74-40"/>
	<path fill="none" stroke="#8A0606" stroke-width="12" stroke-linecap="round" stroke-linejoin="round" stroke-dasharray="0,24" d="
		M1662,493c16.271-16.622,57-43,90-45"/>
</g>
<g id="Shading">
	<polygon fill="#ED1C24" points="769.667,324.333 687.667,321 668.333,187.667 733.5,128 	"/>
	<path fill="#8A0606" d="M890,255c0,8.506-11.555,33.292-19,36l-14-26l-12.992,8l20.028,30.57c-8.3,5.346-8.907,5.763-19.37,5.763
		c-30.1,0-61.333-22.853-61.333-54.333s22.067-57,52.167-57S890,223.52,890,255z"/>
	<polygon fill="#8A0606" points="638.108,229.593 420.619,321.089 168.632,330.088 351,245 	"/>
	<path fill="#8A0606" d="M693.008,313c-4,26,42.667,66.667,60.667,84.667C766,383.5,770,337,767,323
		C749.5,323,708.5,318.5,693.008,313z"/>
	<path fill="#8A0606" d="M348.623,454.582C474,546,613.206,540.834,746.103,415.584C627,474,490,508,348.623,454.582z"/>
	<path fill="#8A0606" d="M712.008,103c-16.008,14-41.008,62.5-27,72c7.492-11.5,27.924-30.927,39-40
		C716.001,119.439,714.206,119.292,712.008,103z"/>
</g>
<g id="Eyes">
	<ellipse fill="#231F20" cx="840.25" cy="253.249" rx="22.75" ry="21.251"/>
	
		<ellipse transform="matrix(0.9618 -0.2737 0.2737 0.9618 1.7125 221.2714)" fill="#231F20" cx="793.75" cy="104.499" rx="28.75" ry="12.501"/>
</g>
<g id="Outline">
	<path fill="none" stroke="#231F20" stroke-width="6" stroke-linecap="round" stroke-linejoin="round" d="M768.333,329
		c-0.667,28-2.658,51.333-14.658,68.667c-22.667-14-49.333-43.334-60.667-72.667c-4,23.333,11.333,68,53.095,90.584
		c-202.489,185.991-362.982,64.496-397.48,38.998c32.998-28.498,56.386-51.582,73.497-101.995
		C220.958,606.684,89.535,397.724,21.643,373.586c62.993-29.999,159.999-196.49,326.49-127.494l-179.501,83.996l251.987-8.999
		l217.489-91.496l-283.486,15C395.121,169.596,570.558,84.78,699.605,94.6c-19.263,16.4-25.93,57.067-19.597,70.4
		c7.667-34,21-50.667,32-62c2,9,3,22,12,32c-24,22-26,26-39,40c20,3,40,37,23,61s-18,62-15,77
		c49.333,19.333,138.333,8.667,155.333-3.333c-22,0-54-12.001-62.667-42C773.584,225.812,808.342,205,822.342,201
		s45.333-4,60.667,26.667C894.713,251.076,889.333,277,872,289l-15-24c16-14-2.786-43.265-24.992-33c-31.008,14.333-5,50,12,41
		c8,13,11,16,18,30c15-4,61.667-15.334,79.667-19.334c9.666-2.333,4.666-29.666-6.668-30.666c-8,3.333-19.332,10-32.666,22
		c3.333-13.333,14.666-35.333,40-33.333c27.931,2.205,49.213,30.009,50.666,126.667c1.334,88.667,106,154.667,182,141.667
		C1119.676,499.667,1013,447.751,1013,367c0-56-8.658-121.333-56.904-147.906c30.912-4.094,92.912,65.239,92.912,119.906
		c0,42,45,143,163,129c-71.008-15-140.674-63.333-141.674-126.333s-41.658-103-80.658-130c59,25,110.572,72.924,119.991,127.333
		c5.629,32.517,40.341,103,140.341,102c-76.341-33.333-111.655-58.997-119.92-103.412c-8.421-45.254-31.746-89.921-117.08-137.921
		c74.668,26,121.848,69.765,127.326,95.333c10,46.667,66.008,114.667,128.674,109c-45.341-19.666-95.027-62.572-108-113.666
		c-11.341-44.667-74.666-76.667-108-101.334c92.668,22,216.105,161.315,254.07,213.085c33,44.997,178.492,161.991,331.484,133.493
		c115.494-8.999,145.492-103.494,140.992-127.493c-14.998,23.998-27.213,31.582-53.213,38.249
		c-33.92,8.697-77.166,43.167-90.666,68.666c-73.498,25.499-246.102-37.919-312.668-129.333
		C1253.1,289.663,1184.342,230.333,1074.342,177c184,72.667,312.367,66.791,375.23,6.096
		c43.498-41.998,148.492-58.498,208.488-29.999c10.281,36.57,42.898,64.143,69.615,73.236c26.412,8.99,41.5,30.501,40,56
		c30-64.667-41.334-138.667-99.115-150.235c-77.996-23.999-184.49-13.5-238.488,38.998c-39.807,38.701-170.738,62.567-341.73-9.429
		c64.497,0,156.666,10,181.238,22.929c-39.238-38.929-189.904-46.929-271.238-37.596c108-34,278.666-6,329.736,31.596
		c-52.402-66.929-207.07-79.596-355.07-48.263c100.668-50,274.668-37.333,364.07,10.765
		c-89.402-88.765-318.736-58.765-389.402-30.765c100.666-54,274-70,363.902-48.731C1164.342,0,989.094,72.102,957.596,84.101
		s-37.25-2.518-77.254-3.768c-21.333-0.667-33.342,8-35.342,9.333c-0.667,18-9.186,32.366-35.333,42.667
		c-22,8.667-46,12.666-58.667-2.667c3.333-4,10.675-9.333,19.342-11.333c12,6,50.667-6,54-24c-19.333-12.667-54,3.333-58,13.333
		c-14.675,3.333-29.342,14.666-36.675,24"/>
</g>
<g id="Lights">
	
		<path display="none" fill="none" stroke="#ED1C24" stroke-width="18" stroke-linecap="round" stroke-linejoin="round" stroke-dasharray="0,12" d="
		M768.333,329c-0.667,28-2.658,51.333-14.658,68.667c-22.667-14-49.333-43.334-60.667-72.667c-4,23.333,11.333,68,53.095,90.584
		c-202.489,185.991-362.982,64.496-397.48,38.998c32.998-28.498,56.386-51.582,73.497-101.995
		C220.958,606.684,89.535,397.724,21.643,373.586c62.993-29.999,159.999-196.49,326.49-127.494l-179.501,83.996l251.987-8.999
		l217.489-91.496l-283.486,15C395.121,169.596,570.558,84.78,699.605,94.6c-19.263,16.4-25.93,57.067-19.597,70.4
		c7.667-34,21-50.667,32-62c2,9,3,22,12,32c-24,22-26,26-39,40c20,3,40,37,23,61s-18,62-15,77
		c49.333,19.333,138.333,8.667,155.333-3.333c-22,0-54-12.001-62.667-42C773.584,225.812,808.342,205,822.342,201
		s45.333-4,60.667,26.667C894.713,251.076,889.333,277,872,289l-15-24c16-14-2.786-43.265-24.992-33c-31.008,14.333-5,50,12,41
		c8,13,11,16,18,30c15-4,61.667-15.334,79.667-19.334c9.666-2.333,4.666-29.666-6.668-30.666c-8,3.333-19.332,10-32.666,22
		c3.333-13.333,14.666-35.333,40-33.333c27.931,2.205,49.213,30.009,50.666,126.667c1.334,88.667,106,154.667,182,141.667
		C1119.676,499.667,1013,447.751,1013,367c0-56-8.658-121.333-56.904-147.906c30.912-4.094,92.912,65.239,92.912,119.906
		c0,42,45,143,163,129c-71.008-15-140.674-63.333-141.674-126.333s-41.658-103-80.658-130c59,25,110.572,72.924,119.991,127.333
		c5.629,32.517,40.341,103,140.341,102c-76.341-33.333-111.655-58.997-119.92-103.412c-8.421-45.254-31.746-89.921-117.08-137.921
		c74.668,26,121.848,69.765,127.326,95.333c10,46.667,66.008,114.667,128.674,109c-45.341-19.666-95.027-62.572-108-113.666
		c-11.341-44.667-74.666-76.667-108-101.334c92.668,22,216.105,161.315,254.07,213.085c33,44.997,178.492,161.991,331.484,133.493
		c115.494-8.999,145.492-103.494,140.992-127.493c-14.998,23.998-27.213,31.582-53.213,38.249
		c-33.92,8.697-77.166,43.167-90.666,68.666c-73.498,25.499-246.102-37.919-312.668-129.333
		C1253.1,289.663,1184.342,230.333,1074.342,177c184,72.667,312.367,66.791,375.23,6.096
		c43.498-41.998,148.492-58.498,208.488-29.999c10.281,36.57,42.898,64.143,69.615,73.236c26.412,8.99,41.5,30.501,40,56
		c30-64.667-41.334-138.667-99.115-150.235c-77.996-23.999-184.49-13.5-238.488,38.998c-39.807,38.701-170.738,62.567-341.73-9.429
		c64.497,0,156.666,10,181.238,22.929c-39.238-38.929-189.904-46.929-271.238-37.596c108-34,278.666-6,329.736,31.596
		c-52.402-66.929-207.07-79.596-355.07-48.263c100.668-50,274.668-37.333,364.07,10.765
		c-89.402-88.765-318.736-58.765-389.402-30.765c100.666-54,274-70,363.902-48.731C1164.342,0,989.094,72.102,957.596,84.101
		s-37.25-2.518-77.254-3.768c-21.333-0.667-33.342,8-35.342,9.333c-0.667,18-9.186,32.366-35.333,42.667
		c-22,8.667-46,12.666-58.667-2.667c3.333-4,10.675-9.333,19.342-11.333c12,6,50.667-6,54-24c-19.333-12.667-54,3.333-58,13.333
		c-14.675,3.333-29.342,14.666-36.675,24"/>
	
		<path display="none" opacity="0.5" fill="none" stroke="#FFFFFF" stroke-width="12" stroke-linecap="round" stroke-linejoin="round" stroke-dasharray="0,12" d="
		M768.333,329c-0.667,28-2.658,51.333-14.658,68.667c-22.667-14-49.333-43.334-60.667-72.667c-4,23.333,11.333,68,53.095,90.584
		c-202.489,185.991-362.982,64.496-397.48,38.998c32.998-28.498,56.386-51.582,73.497-101.995
		C220.958,606.684,89.535,397.724,21.643,373.586c62.993-29.999,159.999-196.49,326.49-127.494l-179.501,83.996l251.987-8.999
		l217.489-91.496l-283.486,15C395.121,169.596,570.558,84.78,699.605,94.6c-19.263,16.4-25.93,57.067-19.597,70.4
		c7.667-34,21-50.667,32-62c2,9,3,22,12,32c-24,22-26,26-39,40c20,3,40,37,23,61s-18,62-15,77
		c49.333,19.333,138.333,8.667,155.333-3.333c-22,0-54-12.001-62.667-42C773.584,225.812,808.342,205,822.342,201
		s45.333-4,60.667,26.667C894.713,251.076,889.333,277,872,289l-15-24c16-14-2.786-43.265-24.992-33c-31.008,14.333-5,50,12,41
		c8,13,11,16,18,30c15-4,61.667-15.334,79.667-19.334c9.666-2.333,4.666-29.666-6.668-30.666c-8,3.333-19.332,10-32.666,22
		c3.333-13.333,14.666-35.333,40-33.333c27.931,2.205,49.213,30.009,50.666,126.667c1.334,88.667,106,154.667,182,141.667
		C1119.676,499.667,1013,447.751,1013,367c0-56-8.658-121.333-56.904-147.906c30.912-4.094,92.912,65.239,92.912,119.906
		c0,42,45,143,163,129c-71.008-15-140.674-63.333-141.674-126.333s-41.658-103-80.658-130c59,25,110.572,72.924,119.991,127.333
		c5.629,32.517,40.341,103,140.341,102c-76.341-33.333-111.655-58.997-119.92-103.412c-8.421-45.254-31.746-89.921-117.08-137.921
		c74.668,26,121.848,69.765,127.326,95.333c10,46.667,66.008,114.667,128.674,109c-45.341-19.666-95.027-62.572-108-113.666
		c-11.341-44.667-74.666-76.667-108-101.334c92.668,22,216.105,161.315,254.07,213.085c33,44.997,178.492,161.991,331.484,133.493
		c115.494-8.999,145.492-103.494,140.992-127.493c-14.998,23.998-27.213,31.582-53.213,38.249
		c-33.92,8.697-77.166,43.167-90.666,68.666c-73.498,25.499-246.102-37.919-312.668-129.333
		C1253.1,289.663,1184.342,230.333,1074.342,177c184,72.667,312.367,66.791,375.23,6.096
		c43.498-41.998,148.492-58.498,208.488-29.999c10.281,36.57,42.898,64.143,69.615,73.236c26.412,8.99,41.5,30.501,40,56
		c30-64.667-41.334-138.667-99.115-150.235c-77.996-23.999-184.49-13.5-238.488,38.998c-39.807,38.701-170.738,62.567-341.73-9.429
		c64.497,0,156.666,10,181.238,22.929c-39.238-38.929-189.904-46.929-271.238-37.596c108-34,278.666-6,329.736,31.596
		c-52.402-66.929-207.07-79.596-355.07-48.263c100.668-50,274.668-37.333,364.07,10.765
		c-89.402-88.765-318.736-58.765-389.402-30.765c100.666-54,274-70,363.902-48.731C1164.342,0,989.094,72.102,957.596,84.101
		s-37.25-2.518-77.254-3.768c-21.333-0.667-33.342,8-35.342,9.333c-0.667,18-9.186,32.366-35.333,42.667
		c-22,8.667-46,12.666-58.667-2.667c3.333-4,10.675-9.333,19.342-11.333c12,6,50.667-6,54-24c-19.333-12.667-54,3.333-58,13.333
		c-14.675,3.333-29.342,14.666-36.675,24"/>
	
		<path display="none" fill="none" stroke="#FFF200" stroke-width="6" stroke-linecap="round" stroke-linejoin="round" stroke-dasharray="0,12" d="
		M768.333,329c-0.667,28-2.658,51.333-14.658,68.667c-22.667-14-49.333-43.334-60.667-72.667c-4,23.333,11.333,68,53.095,90.584
		c-202.489,185.991-362.982,64.496-397.48,38.998c32.998-28.498,56.386-51.582,73.497-101.995
		C220.958,606.684,89.535,397.724,21.643,373.586c62.993-29.999,159.999-196.49,326.49-127.494l-179.501,83.996l251.987-8.999
		l217.489-91.496l-283.486,15C395.121,169.596,570.558,84.78,699.605,94.6c-19.263,16.4-25.93,57.067-19.597,70.4
		c7.667-34,21-50.667,32-62c2,9,3,22,12,32c-24,22-26,26-39,40c20,3,40,37,23,61s-18,62-15,77
		c49.333,19.333,138.333,8.667,155.333-3.333c-22,0-54-12.001-62.667-42C773.584,225.812,808.342,205,822.342,201
		s45.333-4,60.667,26.667C894.713,251.076,889.333,277,872,289l-15-24c16-14-2.786-43.265-24.992-33c-31.008,14.333-5,50,12,41
		c8,13,11,16,18,30c15-4,61.667-15.334,79.667-19.334c9.666-2.333,4.666-29.666-6.668-30.666c-8,3.333-19.332,10-32.666,22
		c3.333-13.333,14.666-35.333,40-33.333c27.931,2.205,49.213,30.009,50.666,126.667c1.334,88.667,106,154.667,182,141.667
		C1119.676,499.667,1013,447.751,1013,367c0-56-8.658-121.333-56.904-147.906c30.912-4.094,92.912,65.239,92.912,119.906
		c0,42,45,143,163,129c-71.008-15-140.674-63.333-141.674-126.333s-41.658-103-80.658-130c59,25,110.572,72.924,119.991,127.333
		c5.629,32.517,40.341,103,140.341,102c-76.341-33.333-111.655-58.997-119.92-103.412c-8.421-45.254-31.746-89.921-117.08-137.921
		c74.668,26,121.848,69.765,127.326,95.333c10,46.667,66.008,114.667,128.674,109c-45.341-19.666-95.027-62.572-108-113.666
		c-11.341-44.667-74.666-76.667-108-101.334c92.668,22,216.105,161.315,254.07,213.085c33,44.997,178.492,161.991,331.484,133.493
		c115.494-8.999,145.492-103.494,140.992-127.493c-14.998,23.998-27.213,31.582-53.213,38.249
		c-33.92,8.697-77.166,43.167-90.666,68.666c-73.498,25.499-246.102-37.919-312.668-129.333
		C1253.1,289.663,1184.342,230.333,1074.342,177c184,72.667,312.367,66.791,375.23,6.096
		c43.498-41.998,148.492-58.498,208.488-29.999c10.281,36.57,42.898,64.143,69.615,73.236c26.412,8.99,41.5,30.501,40,56
		c30-64.667-41.334-138.667-99.115-150.235c-77.996-23.999-184.49-13.5-238.488,38.998c-39.807,38.701-170.738,62.567-341.73-9.429
		c64.497,0,156.666,10,181.238,22.929c-39.238-38.929-189.904-46.929-271.238-37.596c108-34,278.666-6,329.736,31.596
		c-52.402-66.929-207.07-79.596-355.07-48.263c100.668-50,274.668-37.333,364.07,10.765
		c-89.402-88.765-318.736-58.765-389.402-30.765c100.666-54,274-70,363.902-48.731C1164.342,0,989.094,72.102,957.596,84.101
		s-37.25-2.518-77.254-3.768c-21.333-0.667-33.342,8-35.342,9.333c-0.667,18-9.186,32.366-35.333,42.667
		c-22,8.667-46,12.666-58.667-2.667c3.333-4,10.675-9.333,19.342-11.333c12,6,50.667-6,54-24c-19.333-12.667-54,3.333-58,13.333
		c-14.675,3.333-29.342,14.666-36.675,24"/>
</g>
</svg>
