<?xml version="1.0" encoding="utf-8"?>
<!-- Generator: Adobe Illustrator 13.0.0, SVG Export Plug-In . SVG Version: 6.00 Build 14948)  -->
<!DOCTYPE svg PUBLIC "-//W3C//DTD SVG 1.1//EN" "http://www.w3.org/Graphics/SVG/1.1/DTD/svg11.dtd">
<svg version="1.1" xmlns="http://www.w3.org/2000/svg" xmlns:xlink="http://www.w3.org/1999/xlink" x="0px" y="0px"
	 width="1776.338px" height="520.981px" viewBox="0 0 1776.338 520.981" enable-background="new 0 0 1776.338 520.981"
	 xml:space="preserve">
<g id="Scans">
</g>
<g id="Black_Sea">
	
		<path display="none" fill="none" stroke="#ED1C24" stroke-width="18" stroke-linecap="round" stroke-linejoin="round" stroke-dasharray="0,12" d="
		M755.69,300.986c-0.667,28-2.658,51.333-14.658,68.667c-22.667-14-49.333-43.334-60.667-72.667c-4,23.333,11.333,68,53.095,90.584
		c-202.489,185.991-362.982,64.496-397.48,38.998c32.998-28.498,56.386-51.582,73.497-101.995
		C208.315,578.67,76.892,369.71,9,345.572c62.993-29.999,159.999-196.49,326.49-127.494l-179.501,83.996l251.987-8.999
		l217.489-91.496l-283.486,15c40.498-74.996,215.935-159.812,344.982-149.993c-19.263,16.4-25.93,57.067-19.597,70.4
		c7.667-34,21-50.667,32-62c2,9,3,22,12,32c-24,22-26,26-39,40c20,3,40,37,23,61s-18,62-15,77
		c49.333,19.333,138.333,8.667,155.333-3.333c-22,0-54-12.001-62.667-42c-12.091-41.854,22.667-62.667,36.667-66.667
		s45.333-4,60.667,26.667c11.705,23.409,6.325,49.333-11.008,61.333l-15-24c16-14-2.786-43.265-24.992-33c-31.008,14.333-5,50,12,41
		c8,13,11,16,18,30c15-4,61.667-15.334,79.667-19.334c9.666-2.333,4.666-29.666-6.668-30.666c-8,3.333-19.332,10-32.666,22
		c3.333-13.333,14.666-35.333,40-33.333c27.931,2.205,49.213,30.009,50.666,126.667c1.334,88.667,106,154.667,182,141.667
		c-55.332-10.333-162.008-62.249-162.008-143c0-56-8.658-121.333-56.904-147.906c30.912-4.094,92.912,65.239,92.912,119.906
		c0,42,45,143,163,129c-71.008-15-140.674-63.333-141.674-126.333s-41.658-103-80.658-130c59,25,110.572,72.924,119.991,127.333
		c5.629,32.517,40.341,103,140.341,102c-76.341-33.333-111.655-58.997-119.92-103.412c-8.421-45.254-31.746-89.921-117.08-137.921
		c74.668,26,121.848,69.765,127.326,95.333c10,46.667,66.008,114.667,128.674,109c-45.341-19.666-95.027-62.572-108-113.666
		c-11.341-44.667-74.666-76.667-108-101.334c92.668,22,216.105,161.315,254.07,213.085c33,44.997,178.492,161.991,331.484,133.493
		c115.494-8.999,145.492-103.494,140.992-127.493c-14.998,23.998-27.213,31.582-53.213,38.249
		c-33.92,8.697-77.166,43.167-90.666,68.666c-73.498,25.499-246.102-37.919-312.668-129.333
		c-69.908-96.004-138.666-155.333-248.666-208.667c184,72.667,312.367,66.791,375.23,6.096
		c43.498-41.998,148.492-58.498,208.488-29.999c10.281,36.57,42.898,64.143,69.615,73.236c26.412,8.99,41.5,30.501,40,56
		c30-64.667-41.334-138.667-99.115-150.235c-77.996-23.999-184.49-13.5-238.488,38.998c-39.807,38.701-170.738,62.567-341.73-9.429
		c64.497,0,156.666,10,181.238,22.929c-39.238-38.929-189.904-46.929-271.238-37.596c108-34,278.666-6,329.736,31.596
		c-52.402-66.929-207.07-79.596-355.07-48.263c100.668-50,274.668-37.333,364.07,10.765
		C1235.033,24.32,1005.699,54.32,935.033,82.32c100.666-54,274-70,363.902-48.731c-147.236-61.602-322.484,10.5-353.982,22.499
		s-37.25-2.518-77.254-3.768c-21.333-0.667-33.342,8-35.342,9.333c-0.667,18-9.186,32.366-35.333,42.667
		c-22,8.667-46,12.666-58.667-2.667c3.333-4,10.675-9.333,19.342-11.333c12,6,50.667-6,54-24c-19.333-12.667-54,3.333-58,13.333
		c-14.675,3.333-29.342,14.666-36.675,24"/>
	
		<path display="none" opacity="0.5" fill="none" stroke="#FFFFFF" stroke-width="12" stroke-linecap="round" stroke-linejoin="round" stroke-dasharray="0,12" d="
		M755.69,300.986c-0.667,28-2.658,51.333-14.658,68.667c-22.667-14-49.333-43.334-60.667-72.667c-4,23.333,11.333,68,53.095,90.584
		c-202.489,185.991-362.982,64.496-397.48,38.998c32.998-28.498,56.386-51.582,73.497-101.995
		C208.315,578.67,76.892,369.71,9,345.572c62.993-29.999,159.999-196.49,326.49-127.494l-179.501,83.996l251.987-8.999
		l217.489-91.496l-283.486,15c40.498-74.996,215.935-159.812,344.982-149.993c-19.263,16.4-25.93,57.067-19.597,70.4
		c7.667-34,21-50.667,32-62c2,9,3,22,12,32c-24,22-26,26-39,40c20,3,40,37,23,61s-18,62-15,77
		c49.333,19.333,138.333,8.667,155.333-3.333c-22,0-54-12.001-62.667-42c-12.091-41.854,22.667-62.667,36.667-66.667
		s45.333-4,60.667,26.667c11.705,23.409,6.325,49.333-11.008,61.333l-15-24c16-14-2.786-43.265-24.992-33c-31.008,14.333-5,50,12,41
		c8,13,11,16,18,30c15-4,61.667-15.334,79.667-19.334c9.666-2.333,4.666-29.666-6.668-30.666c-8,3.333-19.332,10-32.666,22
		c3.333-13.333,14.666-35.333,40-33.333c27.931,2.205,49.213,30.009,50.666,126.667c1.334,88.667,106,154.667,182,141.667
		c-55.332-10.333-162.008-62.249-162.008-143c0-56-8.658-121.333-56.904-147.906c30.912-4.094,92.912,65.239,92.912,119.906
		c0,42,45,143,163,129c-71.008-15-140.674-63.333-141.674-126.333s-41.658-103-80.658-130c59,25,110.572,72.924,119.991,127.333
		c5.629,32.517,40.341,103,140.341,102c-76.341-33.333-111.655-58.997-119.92-103.412c-8.421-45.254-31.746-89.921-117.08-137.921
		c74.668,26,121.848,69.765,127.326,95.333c10,46.667,66.008,114.667,128.674,109c-45.341-19.666-95.027-62.572-108-113.666
		c-11.341-44.667-74.666-76.667-108-101.334c92.668,22,216.105,161.315,254.07,213.085c33,44.997,178.492,161.991,331.484,133.493
		c115.494-8.999,145.492-103.494,140.992-127.493c-14.998,23.998-27.213,31.582-53.213,38.249
		c-33.92,8.697-77.166,43.167-90.666,68.666c-73.498,25.499-246.102-37.919-312.668-129.333
		c-69.908-96.004-138.666-155.333-248.666-208.667c184,72.667,312.367,66.791,375.23,6.096
		c43.498-41.998,148.492-58.498,208.488-29.999c10.281,36.57,42.898,64.143,69.615,73.236c26.412,8.99,41.5,30.501,40,56
		c30-64.667-41.334-138.667-99.115-150.235c-77.996-23.999-184.49-13.5-238.488,38.998c-39.807,38.701-170.738,62.567-341.73-9.429
		c64.497,0,156.666,10,181.238,22.929c-39.238-38.929-189.904-46.929-271.238-37.596c108-34,278.666-6,329.736,31.596
		c-52.402-66.929-207.07-79.596-355.07-48.263c100.668-50,274.668-37.333,364.07,10.765
		C1235.033,24.32,1005.699,54.32,935.033,82.32c100.666-54,274-70,363.902-48.731c-147.236-61.602-322.484,10.5-353.982,22.499
		s-37.25-2.518-77.254-3.768c-21.333-0.667-33.342,8-35.342,9.333c-0.667,18-9.186,32.366-35.333,42.667
		c-22,8.667-46,12.666-58.667-2.667c3.333-4,10.675-9.333,19.342-11.333c12,6,50.667-6,54-24c-19.333-12.667-54,3.333-58,13.333
		c-14.675,3.333-29.342,14.666-36.675,24"/>
</g>
<g id="Deep_Sea">
</g>
<g id="Body_Color">
</g>
<g id="Suckers">
</g>
<g id="Shading">
</g>
<g id="Eyes">
</g>
<g id="Outline">
	<path fill="none" stroke="#231F20" stroke-width="6" stroke-linecap="round" stroke-linejoin="round" d="M755.69,300.986
		c-0.667,28-2.658,51.333-14.658,68.667c-22.667-14-49.333-43.334-60.667-72.667c-4,23.333,11.333,68,53.095,90.584
		c-202.489,185.991-362.982,64.496-397.48,38.998c32.998-28.498,56.386-51.582,73.497-101.995
		C208.315,578.67,76.892,369.71,9,345.572c62.993-29.999,159.999-196.49,326.49-127.494l-179.501,83.996l251.987-8.999
		l217.489-91.496l-283.486,15c40.498-74.996,215.935-159.812,344.982-149.993c-19.263,16.4-25.93,57.067-19.597,70.4
		c7.667-34,21-50.667,32-62c2,9,3,22,12,32c-24,22-26,26-39,40c20,3,40,37,23,61s-18,62-15,77
		c49.333,19.333,138.333,8.667,155.333-3.333c-22,0-54-12.001-62.667-42c-12.091-41.854,22.667-62.667,36.667-66.667
		s45.333-4,60.667,26.667c11.705,23.409,6.325,49.333-11.008,61.333l-15-24c16-14-2.786-43.265-24.992-33c-31.008,14.333-5,50,12,41
		c8,13,11,16,18,30c15-4,61.667-15.334,79.667-19.334c9.666-2.333,4.666-29.666-6.668-30.666c-8,3.333-19.332,10-32.666,22
		c3.333-13.333,14.666-35.333,40-33.333c27.931,2.205,49.213,30.009,50.666,126.667c1.334,88.667,106,154.667,182,141.667
		c-55.332-10.333-162.008-62.249-162.008-143c0-56-8.658-121.333-56.904-147.906c30.912-4.094,92.912,65.239,92.912,119.906
		c0,42,45,143,163,129c-71.008-15-140.674-63.333-141.674-126.333s-41.658-103-80.658-130c59,25,110.572,72.924,119.991,127.333
		c5.629,32.517,40.341,103,140.341,102c-76.341-33.333-111.655-58.997-119.92-103.412c-8.421-45.254-31.746-89.921-117.08-137.921
		c74.668,26,121.848,69.765,127.326,95.333c10,46.667,66.008,114.667,128.674,109c-45.341-19.666-95.027-62.572-108-113.666
		c-11.341-44.667-74.666-76.667-108-101.334c92.668,22,216.105,161.315,254.07,213.085c33,44.997,178.492,161.991,331.484,133.493
		c115.494-8.999,145.492-103.494,140.992-127.493c-14.998,23.998-27.213,31.582-53.213,38.249
		c-33.92,8.697-77.166,43.167-90.666,68.666c-73.498,25.499-246.102-37.919-312.668-129.333
		c-69.908-96.004-138.666-155.333-248.666-208.667c184,72.667,312.367,66.791,375.23,6.096
		c43.498-41.998,148.492-58.498,208.488-29.999c10.281,36.57,42.898,64.143,69.615,73.236c26.412,8.99,41.5,30.501,40,56
		c30-64.667-41.334-138.667-99.115-150.235c-77.996-23.999-184.49-13.5-238.488,38.998c-39.807,38.701-170.738,62.567-341.73-9.429
		c64.497,0,156.666,10,181.238,22.929c-39.238-38.929-189.904-46.929-271.238-37.596c108-34,278.666-6,329.736,31.596
		c-52.402-66.929-207.07-79.596-355.07-48.263c100.668-50,274.668-37.333,364.07,10.765
		C1235.033,24.32,1005.699,54.32,935.033,82.32c100.666-54,274-70,363.902-48.731c-147.236-61.602-322.484,10.5-353.982,22.499
		s-37.25-2.518-77.254-3.768c-21.333-0.667-33.342,8-35.342,9.333c-0.667,18-9.186,32.366-35.333,42.667
		c-22,8.667-46,12.666-58.667-2.667c3.333-4,10.675-9.333,19.342-11.333c12,6,50.667-6,54-24c-19.333-12.667-54,3.333-58,13.333
		c-14.675,3.333-29.342,14.666-36.675,24"/>
</g>
<g id="Lights">
	
		<path display="none" fill="none" stroke="#ED1C24" stroke-width="18" stroke-linecap="round" stroke-linejoin="round" stroke-dasharray="0,12" d="
		M755.69,300.986c-0.667,28-2.658,51.333-14.658,68.667c-22.667-14-49.333-43.334-60.667-72.667c-4,23.333,11.333,68,53.095,90.584
		c-202.489,185.991-362.982,64.496-397.48,38.998c32.998-28.498,56.386-51.582,73.497-101.995
		C208.315,578.67,76.892,369.71,9,345.572c62.993-29.999,159.999-196.49,326.49-127.494l-179.501,83.996l251.987-8.999
		l217.489-91.496l-283.486,15c40.498-74.996,215.935-159.812,344.982-149.993c-19.263,16.4-25.93,57.067-19.597,70.4
		c7.667-34,21-50.667,32-62c2,9,3,22,12,32c-24,22-26,26-39,40c20,3,40,37,23,61s-18,62-15,77
		c49.333,19.333,138.333,8.667,155.333-3.333c-22,0-54-12.001-62.667-42c-12.091-41.854,22.667-62.667,36.667-66.667
		s45.333-4,60.667,26.667c11.705,23.409,6.325,49.333-11.008,61.333l-15-24c16-14-2.786-43.265-24.992-33c-31.008,14.333-5,50,12,41
		c8,13,11,16,18,30c15-4,61.667-15.334,79.667-19.334c9.666-2.333,4.666-29.666-6.668-30.666c-8,3.333-19.332,10-32.666,22
		c3.333-13.333,14.666-35.333,40-33.333c27.931,2.205,49.213,30.009,50.666,126.667c1.334,88.667,106,154.667,182,141.667
		c-55.332-10.333-162.008-62.249-162.008-143c0-56-8.658-121.333-56.904-147.906c30.912-4.094,92.912,65.239,92.912,119.906
		c0,42,45,143,163,129c-71.008-15-140.674-63.333-141.674-126.333s-41.658-103-80.658-130c59,25,110.572,72.924,119.991,127.333
		c5.629,32.517,40.341,103,140.341,102c-76.341-33.333-111.655-58.997-119.92-103.412c-8.421-45.254-31.746-89.921-117.08-137.921
		c74.668,26,121.848,69.765,127.326,95.333c10,46.667,66.008,114.667,128.674,109c-45.341-19.666-95.027-62.572-108-113.666
		c-11.341-44.667-74.666-76.667-108-101.334c92.668,22,216.105,161.315,254.07,213.085c33,44.997,178.492,161.991,331.484,133.493
		c115.494-8.999,145.492-103.494,140.992-127.493c-14.998,23.998-27.213,31.582-53.213,38.249
		c-33.92,8.697-77.166,43.167-90.666,68.666c-73.498,25.499-246.102-37.919-312.668-129.333
		c-69.908-96.004-138.666-155.333-248.666-208.667c184,72.667,312.367,66.791,375.23,6.096
		c43.498-41.998,148.492-58.498,208.488-29.999c10.281,36.57,42.898,64.143,69.615,73.236c26.412,8.99,41.5,30.501,40,56
		c30-64.667-41.334-138.667-99.115-150.235c-77.996-23.999-184.49-13.5-238.488,38.998c-39.807,38.701-170.738,62.567-341.73-9.429
		c64.497,0,156.666,10,181.238,22.929c-39.238-38.929-189.904-46.929-271.238-37.596c108-34,278.666-6,329.736,31.596
		c-52.402-66.929-207.07-79.596-355.07-48.263c100.668-50,274.668-37.333,364.07,10.765
		C1235.033,24.32,1005.699,54.32,935.033,82.32c100.666-54,274-70,363.902-48.731c-147.236-61.602-322.484,10.5-353.982,22.499
		s-37.25-2.518-77.254-3.768c-21.333-0.667-33.342,8-35.342,9.333c-0.667,18-9.186,32.366-35.333,42.667
		c-22,8.667-46,12.666-58.667-2.667c3.333-4,10.675-9.333,19.342-11.333c12,6,50.667-6,54-24c-19.333-12.667-54,3.333-58,13.333
		c-14.675,3.333-29.342,14.666-36.675,24"/>
	
		<path display="none" opacity="0.5" fill="none" stroke="#FFFFFF" stroke-width="12" stroke-linecap="round" stroke-linejoin="round" stroke-dasharray="0,12" d="
		M755.69,300.986c-0.667,28-2.658,51.333-14.658,68.667c-22.667-14-49.333-43.334-60.667-72.667c-4,23.333,11.333,68,53.095,90.584
		c-202.489,185.991-362.982,64.496-397.48,38.998c32.998-28.498,56.386-51.582,73.497-101.995
		C208.315,578.67,76.892,369.71,9,345.572c62.993-29.999,159.999-196.49,326.49-127.494l-179.501,83.996l251.987-8.999
		l217.489-91.496l-283.486,15c40.498-74.996,215.935-159.812,344.982-149.993c-19.263,16.4-25.93,57.067-19.597,70.4
		c7.667-34,21-50.667,32-62c2,9,3,22,12,32c-24,22-26,26-39,40c20,3,40,37,23,61s-18,62-15,77
		c49.333,19.333,138.333,8.667,155.333-3.333c-22,0-54-12.001-62.667-42c-12.091-41.854,22.667-62.667,36.667-66.667
		s45.333-4,60.667,26.667c11.705,23.409,6.325,49.333-11.008,61.333l-15-24c16-14-2.786-43.265-24.992-33c-31.008,14.333-5,50,12,41
		c8,13,11,16,18,30c15-4,61.667-15.334,79.667-19.334c9.666-2.333,4.666-29.666-6.668-30.666c-8,3.333-19.332,10-32.666,22
		c3.333-13.333,14.666-35.333,40-33.333c27.931,2.205,49.213,30.009,50.666,126.667c1.334,88.667,106,154.667,182,141.667
		c-55.332-10.333-162.008-62.249-162.008-143c0-56-8.658-121.333-56.904-147.906c30.912-4.094,92.912,65.239,92.912,119.906
		c0,42,45,143,163,129c-71.008-15-140.674-63.333-141.674-126.333s-41.658-103-80.658-130c59,25,110.572,72.924,119.991,127.333
		c5.629,32.517,40.341,103,140.341,102c-76.341-33.333-111.655-58.997-119.92-103.412c-8.421-45.254-31.746-89.921-117.08-137.921
		c74.668,26,121.848,69.765,127.326,95.333c10,46.667,66.008,114.667,128.674,109c-45.341-19.666-95.027-62.572-108-113.666
		c-11.341-44.667-74.666-76.667-108-101.334c92.668,22,216.105,161.315,254.07,213.085c33,44.997,178.492,161.991,331.484,133.493
		c115.494-8.999,145.492-103.494,140.992-127.493c-14.998,23.998-27.213,31.582-53.213,38.249
		c-33.92,8.697-77.166,43.167-90.666,68.666c-73.498,25.499-246.102-37.919-312.668-129.333
		c-69.908-96.004-138.666-155.333-248.666-208.667c184,72.667,312.367,66.791,375.23,6.096
		c43.498-41.998,148.492-58.498,208.488-29.999c10.281,36.57,42.898,64.143,69.615,73.236c26.412,8.99,41.5,30.501,40,56
		c30-64.667-41.334-138.667-99.115-150.235c-77.996-23.999-184.49-13.5-238.488,38.998c-39.807,38.701-170.738,62.567-341.73-9.429
		c64.497,0,156.666,10,181.238,22.929c-39.238-38.929-189.904-46.929-271.238-37.596c108-34,278.666-6,329.736,31.596
		c-52.402-66.929-207.07-79.596-355.07-48.263c100.668-50,274.668-37.333,364.07,10.765
		C1235.033,24.32,1005.699,54.32,935.033,82.32c100.666-54,274-70,363.902-48.731c-147.236-61.602-322.484,10.5-353.982,22.499
		s-37.25-2.518-77.254-3.768c-21.333-0.667-33.342,8-35.342,9.333c-0.667,18-9.186,32.366-35.333,42.667
		c-22,8.667-46,12.666-58.667-2.667c3.333-4,10.675-9.333,19.342-11.333c12,6,50.667-6,54-24c-19.333-12.667-54,3.333-58,13.333
		c-14.675,3.333-29.342,14.666-36.675,24"/>
	
		<path display="none" fill="none" stroke="#FFF200" stroke-width="6" stroke-linecap="round" stroke-linejoin="round" stroke-dasharray="0,12" d="
		M755.69,300.986c-0.667,28-2.658,51.333-14.658,68.667c-22.667-14-49.333-43.334-60.667-72.667c-4,23.333,11.333,68,53.095,90.584
		c-202.489,185.991-362.982,64.496-397.48,38.998c32.998-28.498,56.386-51.582,73.497-101.995
		C208.315,578.67,76.892,369.71,9,345.572c62.993-29.999,159.999-196.49,326.49-127.494l-179.501,83.996l251.987-8.999
		l217.489-91.496l-283.486,15c40.498-74.996,215.935-159.812,344.982-149.993c-19.263,16.4-25.93,57.067-19.597,70.4
		c7.667-34,21-50.667,32-62c2,9,3,22,12,32c-24,22-26,26-39,40c20,3,40,37,23,61s-18,62-15,77
		c49.333,19.333,138.333,8.667,155.333-3.333c-22,0-54-12.001-62.667-42c-12.091-41.854,22.667-62.667,36.667-66.667
		s45.333-4,60.667,26.667c11.705,23.409,6.325,49.333-11.008,61.333l-15-24c16-14-2.786-43.265-24.992-33c-31.008,14.333-5,50,12,41
		c8,13,11,16,18,30c15-4,61.667-15.334,79.667-19.334c9.666-2.333,4.666-29.666-6.668-30.666c-8,3.333-19.332,10-32.666,22
		c3.333-13.333,14.666-35.333,40-33.333c27.931,2.205,49.213,30.009,50.666,126.667c1.334,88.667,106,154.667,182,141.667
		c-55.332-10.333-162.008-62.249-162.008-143c0-56-8.658-121.333-56.904-147.906c30.912-4.094,92.912,65.239,92.912,119.906
		c0,42,45,143,163,129c-71.008-15-140.674-63.333-141.674-126.333s-41.658-103-80.658-130c59,25,110.572,72.924,119.991,127.333
		c5.629,32.517,40.341,103,140.341,102c-76.341-33.333-111.655-58.997-119.92-103.412c-8.421-45.254-31.746-89.921-117.08-137.921
		c74.668,26,121.848,69.765,127.326,95.333c10,46.667,66.008,114.667,128.674,109c-45.341-19.666-95.027-62.572-108-113.666
		c-11.341-44.667-74.666-76.667-108-101.334c92.668,22,216.105,161.315,254.07,213.085c33,44.997,178.492,161.991,331.484,133.493
		c115.494-8.999,145.492-103.494,140.992-127.493c-14.998,23.998-27.213,31.582-53.213,38.249
		c-33.92,8.697-77.166,43.167-90.666,68.666c-73.498,25.499-246.102-37.919-312.668-129.333
		c-69.908-96.004-138.666-155.333-248.666-208.667c184,72.667,312.367,66.791,375.23,6.096
		c43.498-41.998,148.492-58.498,208.488-29.999c10.281,36.57,42.898,64.143,69.615,73.236c26.412,8.99,41.5,30.501,40,56
		c30-64.667-41.334-138.667-99.115-150.235c-77.996-23.999-184.49-13.5-238.488,38.998c-39.807,38.701-170.738,62.567-341.73-9.429
		c64.497,0,156.666,10,181.238,22.929c-39.238-38.929-189.904-46.929-271.238-37.596c108-34,278.666-6,329.736,31.596
		c-52.402-66.929-207.07-79.596-355.07-48.263c100.668-50,274.668-37.333,364.07,10.765
		C1235.033,24.32,1005.699,54.32,935.033,82.32c100.666-54,274-70,363.902-48.731c-147.236-61.602-322.484,10.5-353.982,22.499
		s-37.25-2.518-77.254-3.768c-21.333-0.667-33.342,8-35.342,9.333c-0.667,18-9.186,32.366-35.333,42.667
		c-22,8.667-46,12.666-58.667-2.667c3.333-4,10.675-9.333,19.342-11.333c12,6,50.667-6,54-24c-19.333-12.667-54,3.333-58,13.333
		c-14.675,3.333-29.342,14.666-36.675,24"/>
</g>
</svg>
